<?xml version="1.0" encoding="UTF-8" standalone="no"?>
<svg
   version="1.1"
   id="svg50379"
   sodipodi:docname="fist.svg"
   viewBox="0 0 1181.7225 1213.729"
   inkscape:version="1.1.1 (3bf5ae0d25, 2021-09-20)"
   xmlns:inkscape="http://www.inkscape.org/namespaces/inkscape"
   xmlns:sodipodi="http://sodipodi.sourceforge.net/DTD/sodipodi-0.dtd"
   xmlns="http://www.w3.org/2000/svg"
   xmlns:svg="http://www.w3.org/2000/svg">
  <defs
     id="defs50383" />
  <sodipodi:namedview
     id="namedview50381"
     pagecolor="#ffffff"
     bordercolor="#666666"
     borderopacity="1.0"
     inkscape:pageshadow="2"
     inkscape:pageopacity="0.0"
     inkscape:pagecheckerboard="0"
     showgrid="false"
     fit-margin-top="0"
     fit-margin-left="0"
     fit-margin-right="0"
     fit-margin-bottom="0"
     inkscape:zoom="0.57957393"
     inkscape:cx="589.22595"
     inkscape:cy="799.72541"
     inkscape:window-width="3440"
     inkscape:window-height="1369"
     inkscape:window-x="0"
     inkscape:window-y="34"
     inkscape:window-maximized="1"
     inkscape:current-layer="svg50379" />
  <path
     style="fill:#ffffff;fill-opacity:1;stroke:none;stroke-width:10.3188px;stroke-linecap:butt;stroke-linejoin:miter;stroke-opacity:1"
     d="m 317.05238,238.14313 282.58834,-137.62457 42.33869,35.28499 40.51897,23.93384 c 0,0 143.39089,128.3446 145.98142,135.77668 2.59042,7.43209 40.79366,31.95162 40.79366,31.95162 l 140.81054,108.22106 45.7028,61.99035 21.2976,188.16645 -11.6632,70.38548 -243.61574,214.79 -3.05085,207.07057 -309.92469,-2.1009 -65.75951,-191.413 -256.5437,-367.49851 z"
     id="path49124"
     sodipodi:nodetypes="ccccsccccccccccc" />
  <path
     d="m 379.79488,1177.8617 3.66956,-7.733 -0.35084,-12.1949 c -0.33639,-11.7087 -0.47776,-12.3946 -3.53841,-17.1854 -1.75326,-2.7445 -4.11574,-7.3587 -5.24987,-10.2533 -2.57195,-6.5649 -6.35966,-12.3897 -11.87916,-18.2685 -4.55883,-4.8557 -7.70687,-10.7459 -11.14993,-20.8618 -1.17634,-3.4565 -3.71641,-8.529 -5.64447,-11.2724 -1.92816,-2.7433 -3.50579,-5.3969 -3.50579,-5.8971 0,-0.4994 -1.68547,-2.3891 -3.74561,-4.1978 -2.05993,-1.8086 -4.23987,-4.2249 -4.84414,-5.369 -5.16547,-9.781 -11.32453,-19.6445 -13.51076,-21.6361 -0.30234,-0.2755 -1.85562,-3.116 -3.45111,-6.3117 -1.7189,-3.4426 -7.10271,-10.3897 -13.21286,-17.0488 -5.6715,-6.1814 -10.3267,-11.7869 -10.34383,-12.4579 -0.0206,-0.6696 -1.40149,-2.6197 -3.07509,-4.3316 -1.6735,-1.7118 -4.38093,-5.90194 -6.01656,-9.31115 -1.63552,-3.40922 -3.86664,-7.32694 -4.95796,-8.70584 -1.09131,-1.37889 -1.9943,-3.01018 -2.00648,-3.62487 -0.0206,-0.615 -1.39437,-2.64563 -3.07117,-4.51301 -3.06859,-3.41706 -10.46105,-17.57842 -13.55193,-25.96045 -2.55049,-6.91677 -2.81537,-10.43298 -1.04437,-13.85778 0.87916,-1.70022 1.59859,-5.1342 1.59859,-7.63093 0,-5.99458 -2.33142,-7.50421 -13.23494,-8.56973 -6.48679,-0.63357 -9.93872,-1.61313 -15.62374,-4.432 -4.01358,-1.99029 -7.95989,-3.61859 -8.7695,-3.61859 -3.00048,0 -10.07482,-8.64299 -14.77532,-18.05173 -2.61787,-5.24007 -4.75984,-10.00703 -4.75984,-10.59345 1.1e-4,-0.5861 -1.32297,-2.33358 -2.94012,-3.88294 -1.61716,-1.54936 -4.33429,-5.58266 -6.03802,-8.96277 -3.80783,-7.55436 -8.59625,-14.34421 -11.03674,-15.65098 -2.18923,-1.17159 -6.81502,-9.25964 -10.05078,-17.57243 -1.28809,-3.30943 -3.09026,-6.91986 -4.0046,-8.02304 -3.0978,-3.73714 -4.85622,-7.15905 -6.46832,-12.58713 -0.88431,-2.97644 -2.98088,-7.12128 -4.65995,-9.21052 -1.67896,-2.08934 -4.00512,-6.83349 -5.16938,-10.54236 -3.53015,-11.24724 -5.97116,-14.38022 -13.65812,-17.53219 -13.56606,-5.56274 -19.2713,-13.21998 -20.74967,-27.85002 -1.13837,-11.26829 -6.30414,-17.38586 -16.51435,-19.55611 -5.634251,-1.1978 -10.318551,-4.01647 -14.856641,-8.93986 -4.56388,-4.95125 -14.21078,-19.18205 -14.25185,-21.02426 -0.0206,-0.61912 -2.1754,-3.70928 -4.80307,-6.86785 -2.62778,-3.15857 -6.33943,-8.78188 -8.2483,-12.49591 -1.90887,-3.71393 -4.48464,-7.59265 -5.72412,-8.61844 -1.23939,-1.02568 -4.2082,-4.87974 -6.5973,-8.56426 -2.38921,-3.68441 -5.0984,-7.31837 -6.02027,-8.07545 -0.9225,-0.7574 -1.67639,-1.76854 -1.67639,-2.24774 0,-0.47879 -1.56133,-2.9167 -3.46947,-5.41662 -7.66034,-10.03582 -7.52031,-21.98205 0.35599,-30.3842 1.7125,-1.82663 3.11348,-3.78472 3.11348,-4.35101 0,-0.5665 2.03084,-3.35153 4.51291,-6.18898 2.48218,-2.83746 4.51291,-5.46183 4.51291,-5.83196 0,-0.37044 1.62438,-3.53706 3.60981,-7.03739 1.98543,-3.50043 4.4513,-9.07215 5.47988,-12.38158 2.66193,-8.5655 6.47295,-14.04424 18.20724,-26.17404 5.67077,-5.86209 10.93035,-11.3075 11.68651,-12.09978 1.02568,-1.07428 1.18314,-2.77079 0.61912,-6.65591 -1.82972,-12.59115 -1.34794,-15.80833 3.87696,-25.89832 2.67783,-5.17125 6.85238,-11.44887 9.276571,-13.95003 2.42429,-2.50117 4.40776,-5.00439 4.40776,-5.56305 0,-0.55928 1.80516,-2.77833 4.01152,-4.93278 2.20636,-2.15435 4.01152,-4.3606 4.01152,-4.90255 0,-0.54173 0.82344,-1.91712 1.82982,-3.0559 1.00608,-1.13857 3.09346,-4.95981 4.63787,-8.49151 1.54451,-3.53159 4.73734,-8.94708 7.09538,-12.03445 4.19437,-5.49206 10.99247,-12.13187 12.42059,-12.13187 1.68918,0 5.98446,-5.89934 7.66704,-10.53019 2.65646,-7.31125 7.38689,-14.23183 14.39436,-21.06037 7.62607,-7.43085 9.7474,-10.73595 12.04859,-18.77096 2.32316,-8.11095 5.34604,-13.69227 8.55704,-15.79822 3.87459,-2.54182 8.93387,-9.02819 10.97451,-14.07045 2.86314,-7.07485 3.49445,-8.3033 6.0924,-11.85904 1.33999,-1.83395 3.14062,-5.66995 4.00141,-8.52443 1.69382,-5.6166 5.8724,-12.19202 11.82189,-18.60142 2.0685,-2.22854 3.76088,-4.51321 3.76088,-5.07703 0,-1.03642 6.71947,-7.93626 13.4085,-13.76852 2.00194,-1.74563 3.63984,-3.80474 3.63984,-4.57596 0,-1.60539 4.50795,-11.24125 6.31518,-13.49879 0.66349,-0.8286 3.12441,-3.65449 5.46863,-6.27917 2.34422,-2.62468 4.26237,-5.22346 4.26237,-5.7751 0,-1.88173 16.78614,-19.34757 18.59419,-19.34757 0.60468,0 2.87326,-1.60302 5.04185,-3.56224 6.2834,-5.67655 13.77957,-8.83389 19.39472,-8.16884 2.58238,0.30543 6.02894,1.22009 7.6592,2.03176 3.79184,1.88761 6.89087,2.76522 24.02496,6.80275 10.29461,2.42594 15.41127,4.17651 19.177,6.56138 2.82527,1.78886 6.4356,3.55482 8.02304,3.92412 3.4768,0.80899 11.0226,4.99882 12.12381,6.73248 1.25662,1.97759 10.36076,5.54602 15.74921,6.17278 2.71115,0.31575 7.29299,1.8128 10.18214,3.3278 5.61464,2.94425 13.76966,7.00561 19.488,9.70634 1.93054,0.91114 5.61351,3.10512 8.18433,4.87437 13.33121,9.17441 16.12223,10.48303 23.90752,11.20824 4.1369,0.38592 10.06894,1.33968 13.1818,2.12122 3.11297,0.78113 9.08907,1.4209 13.27921,1.4209 7.0991,0 7.91924,0.22907 12.02445,3.36257 2.42295,1.84953 5.43984,4.32645 6.7041,5.50444 1.26446,1.17788 3.18209,2.42202 4.26144,2.7646 1.07944,0.34258 4.7231,2.37424 8.09692,4.51476 3.37392,2.14063 7.09466,3.89626 8.26842,3.90153 2.45782,0.008 6.4808,1.60136 18.42486,7.28349 4.68843,2.2304 12.4988,5.34367 17.35584,6.91831 4.85704,1.57465 10.18719,3.5641 11.84397,4.42108 1.65668,0.85748 6.70895,2.41128 11.22619,3.4543 14.10244,3.25598 15.08933,3.60249 20.95214,7.3613 3.14505,2.01639 6.07857,3.6709 6.51866,3.67678 0.43958,0.006 3.05673,1.8063 5.81473,4.001 2.75789,2.19459 5.7139,3.9949 6.56881,4.00078 0.85543,0.006 1.98327,0.39831 2.50715,0.87194 0.5242,0.47466 4.23946,1.38313 8.25635,2.02072 5.6781,0.90083 8.35644,1.93817 12.03456,4.65933 2.60208,1.92497 7.76786,5.51961 11.47889,7.98817 3.71114,2.46845 7.31776,5.39959 8.01345,6.51381 0.69548,1.11422 1.65884,2.02578 2.1399,2.02578 1.31936,0 13.03847,8.98981 14.18767,10.8833 1.48508,2.4475 1.23588,26.81288 -0.33639,32.93045 -0.73573,2.8616 -2.65553,7.28123 -4.26639,9.82119 -2.64253,4.16692 -3.02144,5.86343 -3.87717,17.36183 -0.85336,11.46094 -2.31151,18.41784 -6.1408,29.29113 -1.30181,3.69618 -5.77902,12.83674 -7.12273,14.54171 -4.85972,6.16525 -6.27473,7.52155 -7.84648,7.52155 -1.00814,0 -1.98347,0.36115 -2.16735,0.80279 -0.83582,2.00721 -11.02157,6.47255 -17.66365,7.74351 -7.01056,1.34144 -15.26382,4.95383 -15.26382,6.68108 0,0.4499 -0.59229,0.81828 -1.31595,0.81828 -0.72334,0 -3.18416,0.90289 -5.46739,2.00576 -3.71372,1.79433 -6.20374,2.00587 -23.61881,2.00587 -23.30089,0 -28.10871,0.78835 -37.29199,6.11695 -7.03687,4.08314 -13.73241,6.87787 -16.54747,6.90666 -0.82756,0.008 -3.29746,1.61127 -5.48896,3.56172 -2.1916,1.95045 -5.12501,3.8682 -6.51877,4.26144 -1.39365,0.39315 -11.64038,0.71509 -22.7703,0.71509 -23.11628,0 -23.02506,0.031 -29.07144,-9.0966 -7.22107,-10.89733 -9.52308,-13.42161 -15.58566,-17.09209 -3.47071,-2.10121 -7.18526,-4.62755 -8.25449,-5.61423 -1.06933,-0.98647 -2.36382,-1.79371 -2.87666,-1.79371 -1.89772,0 -15.89471,-15.32903 -20.9833,-22.97998 -1.25228,-1.88296 -4.53334,-4.89047 -7.29123,-6.68325 -5.82628,-3.7874 -13.907,-11.77886 -15.80534,-15.63085 -1.32504,-2.68855 -12.63336,-11.87008 -14.62003,-11.87008 -0.58611,0 -1.42698,-0.61087 -1.86811,-1.35795 -0.44061,-0.74708 -1.87007,-1.91908 -3.17549,-2.60507 -1.96727,-1.03363 -2.63686,-0.98338 -3.91195,0.29202 -2.43822,2.43822 0.0206,18.48306 3.94383,25.73488 2.635,4.87065 3.05074,6.81172 3.55378,16.59266 0.31369,6.09188 0.24559,14.10543 -0.15065,17.80801 -0.62945,5.87746 -1.2559,7.39896 -4.9367,11.98946 -2.31873,2.89204 -5.05877,7.17608 -6.089,9.5204 -1.02981,2.34421 -2.15332,4.26216 -2.4958,4.26216 -0.34155,0 -1.51386,1.69228 -2.60331,3.76078 -1.08956,2.06839 -5.47947,8.18411 -9.75546,13.59001 -4.27589,5.4063 -7.77642,10.59643 -7.7789,11.53306 -0.002,0.93695 -1.92032,3.77574 -4.26216,6.30858 -3.4185,3.69711 -5.45728,4.93299 -10.34074,6.26792 -3.34565,0.91425 -8.32238,1.66298 -11.05871,1.66298 -5.02482,0 -9.46416,2.0397 -9.40049,4.31912 0.0516,1.70497 3.13411,5.17929 6.02533,6.782 5.57945,3.09305 18.0377,6.00077 29.87878,6.97342 7.00303,0.57475 13.61705,1.6609 15.24369,2.5024 1.58094,0.81724 3.54151,1.48631 4.35679,1.48631 0.81518,0 2.07892,0.59436 2.80773,1.31926 0.72954,0.7254 3.58175,2.61436 6.33964,4.19756 2.7579,1.583 6.99044,4.21016 9.40565,5.83794 2.41531,1.62779 6.33974,3.54604 8.72111,4.26278 5.20581,1.5667 8.15274,3.08263 10.81694,5.5646 2.97583,2.77224 11.01362,6.74259 16.9497,8.37274 2.88925,0.79352 6.38153,1.76988 7.76042,2.16983 1.379,0.39934 5.66634,2.40045 9.52742,4.44522 6.21086,3.28941 8.09083,3.78141 16.30869,4.26866 6.84154,0.40553 10.53927,1.16231 14.0364,2.87171 5.81317,2.84158 21.48664,18.3386 24.44709,24.17128 1.17913,2.32347 3.21048,5.50031 4.51415,7.05947 1.30357,1.55917 2.37011,3.20356 2.37011,3.65408 0,0.45093 2.59497,3.49001 5.76654,6.75404 5.58152,5.74424 11.28242,14.75231 11.28242,17.82813 0,0.8255 1.80455,4.10078 4.01018,7.27823 2.20564,3.17735 4.0108,6.34511 4.01152,7.03925 7.2e-4,0.69445 3.61167,5.28888 8.02428,10.21031 4.41271,4.92153 8.02304,9.21465 8.02304,9.54031 0,0.77597 5.15391,8.6953 6.76766,10.39883 0.69033,0.72953 1.25538,1.66906 1.25538,2.08924 0,0.421 1.58651,2.35061 3.52551,4.28961 2.48537,2.48537 3.97943,5.27123 5.06465,9.44383 1.735,6.67056 5.49752,11.25817 11.78381,14.36814 4.96333,2.45566 10.15717,9.63865 11.88907,16.44325 1.17933,4.63271 2.59372,6.46594 13.11163,16.99479 6.48431,6.49091 11.7899,12.07253 11.7899,12.40345 0,0.33124 1.34185,2.1301 2.98192,3.99801 1.63996,1.868 3.7293,5.98921 4.64282,9.15831 1.88255,6.53063 3.6095,9.2357 11.42586,17.89633 3.26475,3.61776 7.31022,9.76423 9.90095,15.0432 2.40932,4.90925 6.13254,11.22423 8.27378,14.0333 2.14125,2.80887 3.89317,5.75674 3.89317,6.55107 0,0.79455 3.52633,5.26556 7.83627,9.93614 8.76929,9.50316 15.58968,18.42486 16.65777,21.7895 0.39005,1.22938 1.37508,2.90081 2.18851,3.71434 0.81311,0.81312 2.49064,3.2599 3.72703,5.43664 1.23629,2.17664 5.76385,7.6622 10.06089,12.18997 7.96615,8.39379 10.69865,13.43553 16.05805,29.627 1.2018,3.63117 3.68,7.23516 8.6202,12.53617 5.5474,5.9526 7.3701,8.7426 9.1187,13.9579 1.2021,3.5853 2.7647,7.1957 3.4726,8.0231 3.2367,3.7825 6.5003,11.19 6.4917,14.7342 -0.021,4.9177 -4.4247,12.6022 -10.2545,17.8593 -7.7209,6.9614 -9.771,8.5244 -11.181,8.5244 -2.3141,0 -13.1046,5.1115 -13.9571,6.6111 -0.4407,0.777 -1.3871,1.412 -2.10217,1.412 -0.71509,0 -3.09676,1.918 -5.29239,4.2623 -5.23109,5.5848 -10.2555,9.7942 -13.36537,11.1981 -1.379,0.6222 -5.08054,2.8138 -8.2257,4.8702 -3.14505,2.0564 -6.17557,3.7388 -6.73454,3.7388 -0.55927,0 -2.49848,1.3008 -4.31024,2.8904 -7.16731,6.2888 -16.23874,10.5343 -25.9846,12.161 -8.39513,1.4013 -12.37053,3.1236 -13.92794,6.0343 -1.27674,2.3854 -2.27612,1.9779 13.26507,5.4063 14.16961,3.1256 36.42346,3.6487 46.25775,1.0871 3.17642,-0.8276 8.70438,-1.5043 12.28417,-1.5043 6.17756,0 6.72146,0.1981 10.69166,3.9019 l 4.183,3.9019 0.7956,17.9103 c 0.7522,16.9457 0.9535,18.2353 3.7288,23.9278 l 33.7142,-9.0289 2.2898,-4.1673 c 2.9104,-5.2966 7.8183,-8.5311 17.2555,-11.3715 8.6093,-2.5913 17.0109,-6.0622 17.0109,-7.028 0,-0.3643 1.241,-1.2967 2.7578,-2.0724 1.5169,-0.7759 4.7206,-2.9955 7.1193,-4.933 10.097,-8.1559 13.1888,-11.3425 13.1888,-13.59 0,-2.8024 -4.6114,-6.8635 -9.7012,-8.5434 -9.5139,-3.1399 -15.3381,-7.7146 -29.3613,-23.0612 -8.4648,-9.2642 -8.7761,-9.7767 -9.4426,-15.5445 -1.6699,-14.4525 -5.8931,-29.9138 -10.817,-39.6017 -2.6745,-5.2624 -4.8628,-10.0819 -4.8628,-10.7087 0,-0.6274 -1.6206,-3.8614 -3.6014,-7.1863 -2.7574,-4.6289 -3.7287,-7.5243 -4.1456,-12.3575 -0.5944,-6.89321 -1.2437,-8.57301 -5.3427,-13.83371 -2.6194,-3.36154 -4.1174,-8.26708 -5.5127,-18.05184 -0.3539,-2.48218 -2.674,-8.57468 -5.1556,-13.53893 -4.5219,-9.04563 -6.2284,-13.4245 -8.2771,-21.23889 -0.6037,-2.30449 -2.6694,-6.52435 -4.5892,-9.37738 -1.92,-2.85314 -3.491,-5.81256 -3.491,-6.57666 0,-0.76359 -1.6453,-4.44181 -3.65617,-8.17287 -2.01092,-3.73116 -4.23389,-7.91211 -4.94,-9.29111 -0.70581,-1.3789 -1.95293,-5.78181 -2.7709,-9.78435 -1.4633,-7.16039 -5.01182,-14.65604 -8.18463,-17.28959 -0.88845,-0.73779 -3.47938,-4.53747 -5.75756,-8.44456 -3.13587,-5.37824 -8.60419,-11.5081 -22.51161,-25.23339 -10.10299,-9.97153 -18.38069,-18.77188 -18.3938,-19.55611 -0.0516,-2.9136 -7.09425,-10.91538 -14.54264,-16.52146 -4.22646,-3.18096 -8.19175,-6.95257 -8.8118,-8.38151 -1.3564,-3.12587 -5.71298,-10.10506 -7.45737,-11.94634 -0.69032,-0.72954 -1.25548,-1.92888 -1.25548,-2.66678 0,-0.73779 -3.18261,-4.65458 -7.07279,-8.70356 -3.89006,-4.04908 -8.86907,-9.2261 -11.0647,-11.50511 -2.19552,-2.27838 -5.05526,-6.34005 -6.35511,-9.02592 -1.29986,-2.68576 -3.75985,-6.46274 -5.46688,-8.39327 -1.70693,-1.93054 -3.1108,-4.111 -3.11967,-4.84559 -0.0206,-1.76038 -5.62733,-8.7049 -15.59866,-19.32239 -7.05937,-7.51649 -8.25717,-9.33042 -9.33135,-14.1305 -0.86781,-3.87893 -0.93076,-6.30156 -0.21154,-8.19289 1.34639,-3.54109 5.41921,-5.09148 9.49935,-3.61631 1.69991,0.615 7.45231,1.51263 12.7837,1.99544 5.33087,0.48292 12.39159,1.57722 15.68905,2.43182 3.74364,0.96997 10.46404,1.56185 17.88633,1.57495 12.60818,0.0206 19.28534,1.15777 31.4462,5.34842 8.94131,3.08118 25.412,6.65787 30.77631,6.68336 2.32472,0.008 5.92823,1.17871 9.19433,2.97902 4.83609,2.66585 8.67508,3.70609 20.35137,5.51476 2.01267,0.31163 6.54322,2.09708 10.06792,3.96746 6.8477,3.63396 21.8567,8.04378 30.9006,9.07896 8.5737,0.98131 15.1797,2.5995 19.5161,4.78037 2.1841,1.09843 7.5997,2.79783 12.0345,3.77646 16.1774,3.56925 15.7171,3.33378 27.1179,13.88873 2.2062,2.04291 6.2679,5.2539 9.0258,7.13563 2.758,1.88173 5.6107,4.00688 6.3396,4.72259 0.7296,0.71612 1.6743,1.30129 2.1009,1.30129 0.4272,0 4.3338,3.49755 8.6827,7.7723 4.3489,4.27475 8.637,8.22364 9.5292,8.77517 17.2886,10.68972 21.3332,14.6611 28.5911,28.08064 0.5964,1.10308 3.6811,3.35958 6.8542,5.0143 3.1735,1.65482 8.1001,5.4547 10.9486,8.44415 12.0034,12.5992 14.5136,14.83455 17.2955,15.40528 3.7063,0.75946 11.8942,8.47325 13.7775,12.97925 2.355,5.6361 7.496,10.80796 10.7429,10.80796 3.4013,0 5.1336,-1.61633 10.2103,-9.5273 3.9104,-6.09292 12.8669,-14.54171 15.4153,-14.54171 1.8654,0 11.4489,-5.94835 11.4489,-7.10622 0,-0.50459 0.4788,-0.91734 1.0636,-0.91734 0.5851,0 4.674,-3.61032 9.0866,-8.02293 4.4127,-4.41272 8.5195,-8.02304 9.1262,-8.02304 1.9252,0 13.6381,-8.44013 14.616,-10.53122 1.5934,-3.40953 11.3355,-14.54078 12.7255,-14.54078 4.0848,0 15.56064,-9.909 15.56064,-13.43657 0,-2.04962 4.86669,-6.41693 8.47899,-7.60916 1.9555,-0.64492 3.5555,-1.58971 3.5555,-2.09842 0,-0.50872 0.7894,-0.93282 1.7551,-0.94107 0.9648,-0.008 3.3346,-1.4179 5.2651,-3.13143 1.9305,-1.71354 4.4619,-3.74736 5.6253,-4.51972 1.7357,-1.1523 8.4151,-12.19296 8.4151,-13.90886 0,-0.87297 -2.5478,-0.51388 -5.4446,0.76668 -9.6271,4.25577 -13.1648,6.5067 -14.5799,9.27656 -0.8451,1.65482 -1.7629,3.23431 -2.0387,3.51014 -0.2755,0.27551 -1.5963,2.08098 -2.9344,4.01152 -1.3382,1.93053 -3.0306,3.87097 -3.7609,4.3121 -0.7295,0.44061 -1.3278,1.40748 -1.3278,2.14754 0,0.84098 -2.53829,1.92146 -6.76933,2.8811 -10.3859,2.35567 -11.7146,3.09676 -20.0546,11.18512 -4.2761,4.14721 -8.2262,7.54363 -8.7777,7.54755 -2.5104,0.0206 -17.4993,10.8251 -24.4,17.59348 -4.198,4.11708 -8.1163,7.48554 -8.7073,7.48554 -1.0793,0 -3.5737,2.13144 -15.4172,13.17282 -3.5217,3.28343 -7.7686,6.67593 -9.4374,7.53888 -4.5092,2.33184 -12.9221,1.39634 -20.7817,-2.31067 -5.7906,-2.73128 -10.146,-6.72567 -39.8604,-36.55792 -18.3476,-18.42083 -34.1169,-34.61943 -35.0425,-35.99842 -0.9256,-1.3789 -2.0007,-2.73282 -2.3893,-3.00854 -1.4272,-1.0133 -2.7946,-8.61885 -2.1152,-11.76576 0.8131,-3.76789 8.0332,-13.30614 10.0719,-13.30614 1.6796,0 7.4465,-6.02213 11.0608,-11.54916 3.6398,-5.56728 8.499,-11.95036 9.4028,-12.35248 0.4138,-0.18471 0.7523,-1.12103 0.7523,-2.08264 0,-0.96171 3.4087,-4.75684 7.5749,-8.43393 8.8883,-7.84484 13.3243,-13.38838 17.1001,-21.36932 1.6668,-3.52324 5.3667,-8.44972 9.4226,-12.54606 6.7178,-6.78479 11.1068,-11.92714 14.2167,-16.65675 0.9246,-1.40582 5.0276,-6.01067 9.1182,-10.23239 5.1023,-5.26648 8.0202,-9.23435 9.2933,-12.63831 2.0976,-5.60762 6.017,-12.43761 8.0845,-14.0884 5.5605,-4.43996 14.4456,-12.9843 14.4456,-13.89183 0,-0.60778 0.7894,-1.82075 1.755,-2.69516 0.9658,-0.874 4.665,-4.69792 8.2216,-8.49657 3.5565,-3.79875 11.9472,-12.56804 18.6465,-19.4879 10.3607,-10.70179 20.5179,-24.15239 20.5179,-27.17207 0,-0.42204 3.4612,-4.41488 7.6918,-8.87248 4.2306,-4.4576 9.067,-10.00744 10.7478,-12.33339 1.68074,-2.32554 3.63483,-4.58907 4.34263,-5.0303 0.7079,-0.44061 1.287,-1.27085 1.287,-1.84416 0,-0.57269 3.34,-4.40384 7.4221,-8.51257 4.6051,-4.63508 8.425,-9.58839 10.0639,-13.05044 3.2164,-6.79304 8.4614,-13.26713 14.9881,-18.50008 6.0724,-4.86912 11.173,-5.29734 16.8824,-1.41759 2.0294,1.37899 3.9661,2.50725 4.3042,2.50725 2.7537,0 20.5529,19.7858 20.5529,22.84655 0,0.58301 2.1619,3.46648 4.8041,6.40671 6.3517,7.06814 11.2422,13.42759 11.2422,14.61993 0,0.52935 7.0349,8.12292 15.6329,16.87446 8.5981,8.75145 16.2817,17.16619 17.075,18.69966 0.7925,1.53336 1.7687,2.79875 2.1681,2.81175 0.3994,0.0206 2.0541,1.81817 3.6767,4.01152 1.6226,2.19326 3.4808,3.98779 4.129,3.98779 1.952,0 10.5613,10.21237 12.6824,15.0432 2.9675,6.75941 2.1776,21.42948 -1.5661,29.08342 -4.0724,8.326 -4.8735,9.50337 -10.7549,15.80544 -2.9893,3.20295 -7.3648,8.39968 -9.7234,11.54814 -2.3585,3.14835 -14.0412,15.54355 -25.9625,27.54602 -20.0676,20.20299 -23.34,24.10916 -32.8031,39.14834 -1.6623,2.64201 -5.2867,5.99334 -9.4362,8.72564 -3.7054,2.43987 -7.7011,5.27887 -8.8792,6.30878 -2.315,2.02393 -11.7015,20.87795 -11.1781,22.45145 0.1754,0.52626 2.3417,-0.41378 4.8137,-2.08841 2.4721,-1.67484 5.0266,-3.05332 5.6767,-3.06333 0.6501,-0.008 1.7783,-0.60365 2.5071,-1.31874 3.2399,-3.1791 15.4353,-11.84191 17.3459,-12.32132 6.0503,-1.51861 10.6806,4.2372 10.8712,13.51479 0.1083,5.2573 -1.7273,14.3862 -3.3487,16.65478 -1.8653,2.61075 -3.0237,9.14954 -3.8231,21.58292 l -0.8719,13.55988 -5.6629,11.64647 c -3.1147,6.40568 -5.6632,12.81476 -5.6632,14.24185 0,2.86428 -3.5347,10.97957 -7.4889,17.19435 -4.7419,7.452 -5.7805,10.65659 -5.3538,16.51538 0.2219,3.05146 1.2058,7.12768 2.1854,9.05821 2.8587,5.63343 5.6419,13.36434 5.6425,15.67296 10e-5,1.17365 -0.7058,3.82495 -1.5696,5.89159 -0.8636,2.06664 -2.2248,8.77838 -3.0252,14.91484 -0.8008,6.13646 -1.8626,12.51087 -2.3602,14.16559 -0.4974,1.65482 -1.2072,5.26514 -1.5764,8.02304 -0.9122,6.80873 -2.9767,14.35421 -5.028,18.37172 -1.0061,1.97026 -2.0479,7.49616 -2.5531,13.53893 -0.4695,5.61537 -1.3234,11.78681 -1.8976,13.71332 -0.5748,1.92651 -1.0489,4.63467 -1.0549,6.01728 -0.01,1.38251 -1.8062,6.34985 -4.0006,11.03859 -3.0114,6.43395 -3.9927,9.78487 -4.0008,13.66328 -0.021,5.82786 -1.7366,11.40576 -5.2739,17.05996 -3.1409,5.0208 -4.5472,9.2219 -5.8045,17.3378 -0.9834,6.3499 -4.1374,18.775 -6.1659,24.2927 -0.5365,1.46 -4.3253,6.0365 -8.4187,10.1702 -4.09353,4.1338 -7.44283,7.9937 -7.44283,8.5782 0,0.584 -0.5892,1.4234 -1.3088,1.8646 -0.7203,0.4406 -2.6113,2.6071 -4.2031,4.8135 -1.5917,2.2062 -9.08,10.3296 -16.6408,18.0517 -13.985,14.284 -15.9357,17.2966 -15.9517,24.6387 -0.021,7.1308 -3.0294,13.0084 -10.5813,20.6332 -4.0953,4.1352 -8.227,8.8409 -9.1816,10.457 -0.9545,1.6161 -2.0736,2.9386 -2.4864,2.9386 -0.4127,0 -1.8436,1.6087 -3.1797,3.5749 -1.336,1.9663 -3.7849,4.3356 -5.442,5.2651 -3.9639,2.2239 -11.0738,10.6125 -11.8921,14.0304 z M 777.30527,741.2428 c -3.3208,-0.69239 -8.573,-3.75108 -11.7678,-6.85269 -0.7295,-0.70787 -1.891,-1.28654 -2.5826,-1.28654 -0.6913,0 -3.9311,-2.07696 -7.1993,-4.61558 -8.4427,-6.55819 -10.4218,-7.37802 -20.249,-8.38709 -9.6622,-0.99266 -13.7856,-2.28643 -19.7898,-6.21251 -17.0509,-11.14797 -19.9553,-12.66029 -24.5785,-12.80073 -3.2299,-0.0929 -11.00359,-4.21789 -18.12311,-9.60532 -3.07726,-2.32842 -7.81584,-5.35553 -10.53019,-6.72659 -2.71425,-1.37136 -7.1671,-3.91586 -9.89507,-5.65478 -2.72797,-1.73892 -5.56656,-3.16156 -6.30786,-3.16156 -2.31212,0 -8.65578,-3.66058 -12.59218,-7.26596 -4.55801,-4.17496 -6.09044,-8.71264 -4.69411,-13.89885 1.09544,-4.06837 8.29865,-14.44347 12.16293,-17.52032 1.33483,-1.06252 3.04403,-3.51137 3.79833,-5.4419 3.69731,-9.46333 8.33425,-17.90542 11.54308,-21.01529 1.95592,-1.89576 3.55625,-3.95363 3.55625,-4.57275 0,-0.61913 3.61033,-6.02801 8.02304,-12.0195 4.41261,-5.99148 8.02294,-11.45691 8.02294,-12.14486 0,-0.68827 0.5923,-1.84737 1.31636,-2.57629 6.21859,-6.26018 15.12949,-16.93256 16.17949,-19.37656 0.711,-1.65482 2.5929,-4.44914 4.1833,-6.20973 5.7736,-6.39154 7.6989,-9.58385 9.8257,-16.29176 1.253,-3.95209 3.5263,-8.38255 5.3905,-10.50615 1.7731,-2.01938 4.3024,-5.79863 5.6206,-8.39833 1.3183,-2.59961 3.3484,-5.58627 4.5111,-6.63713 1.1627,-1.05076 2.1142,-2.46381 2.1142,-3.14031 0,-0.67588 1.5633,-2.42233 3.4742,-3.87985 1.9109,-1.45742 4.1223,-4.10594 4.9144,-5.88561 0.7925,-1.77958 2.9388,-6.62021 4.7705,-10.75679 1.8318,-4.13689 3.569,-7.74722 3.8608,-8.02304 2.4016,-2.27075 8.0519,-10.13818 8.0519,-11.21123 0,-0.74089 1.5497,-3.13979 3.444,-5.3317 3.2408,-3.75015 7.6317,-13.33121 9.1943,-20.06152 0.3838,-1.65482 1.308,-3.89884 2.053,-4.98685 0.745,-1.08801 1.3547,-2.58495 1.3547,-3.32666 0,-0.74192 1.4666,-2.79866 3.2593,-4.57101 5.7833,-5.71752 10.6848,-11.85501 13.6533,-17.09704 1.5945,-2.81568 3.8571,-5.979 5.0278,-7.02986 1.1707,-1.05066 2.1283,-2.37569 2.1283,-2.94436 0,-0.56856 3.0464,-5.48276 6.7695,-10.92034 3.7232,-5.43757 7.5393,-11.29635 8.4801,-13.01835 0.9411,-1.72251 3.4975,-4.97457 5.6813,-7.22674 3.857,-3.97726 8.9684,-11.53007 11.2543,-16.63074 0.6181,-1.379 1.5029,-3.18416 1.966,-4.01152 2.177,-3.88904 6.9667,-14.37217 6.9667,-15.24668 0,-0.54071 1.5961,-2.84643 3.5472,-5.12564 1.951,-2.27921 3.7766,-5.28434 4.0571,-6.6782 1.4726,-7.31765 2.8296,-10.39377 5.9707,-13.5348 4.7342,-4.73435 10.0253,-6.07754 15.688,-3.98294 2.3832,0.88122 5.9127,1.96335 7.8433,2.40396 6.4247,1.4664 11.162,4.13452 18.9032,10.64555 3.4633,2.91309 22.0373,12.50685 27.0436,13.96913 1.2771,0.37353 7.2884,5.54323 13.3584,11.48993 6.07,5.9468 12.2461,11.42689 13.7243,12.17799 3.6894,1.87595 11.8059,10.06987 12.6694,12.79072 0.6532,2.05777 5.5112,5.80771 11.5802,8.93842 5.9181,3.05311 7.7038,4.474 14.6841,11.68454 4.0491,4.1824 7.6616,7.60441 8.0279,7.60441 0.3663,0 2.0625,1.06314 3.7694,2.36248 1.7069,1.29934 4.9085,3.28364 7.11484,4.40931 4.80719,2.45287 11.53309,9.46405 11.53309,12.02259 0,1.00814 1.5795,4.28414 3.5101,7.28071 4.208,6.53157 4.6961,10.0094 2.3217,16.54747 -1.3761,3.78935 -8.4004,18.07186 -10.8511,22.06325 -1.0164,1.65482 -2.8169,5.60391 -4.0021,8.7759 -1.1852,3.17199 -2.69229,6.33107 -3.34909,7.02016 -2.14474,2.2498 -4.67834,6.66612 -4.67834,8.15419 0,0.80074 -0.3684,1.60643 -0.8183,1.79031 -2.6416,1.07975 -10.2875,12.55411 -12.6673,19.00859 -1.5006,4.07003 -3.1746,8.5881 -3.72,10.03984 -0.5459,1.45195 -2.313,3.90575 -3.9276,5.45264 -1.6146,1.54699 -2.9358,3.13102 -2.9358,3.52014 0,0.38902 -2.4087,3.12524 -5.3528,6.08033 -2.9441,2.95519 -7.9239,8.83801 -11.0657,13.07355 -3.1423,4.23513 -6.0491,7.84556 -6.4594,8.02304 -1.5954,0.69033 -10.2163,12.12279 -10.2163,13.54781 0,1.5474 -2.9418,6.2768 -6.1213,9.841 -7.5827,8.50018 -9.9247,11.38272 -9.9247,12.2141 0,0.52729 -5.2295,6.30476 -11.6214,12.83984 -6.3914,6.53528 -12.0415,12.82374 -12.556,13.97304 -0.5149,1.15003 -2.2711,4.12183 -3.9037,6.6039 -1.6325,2.48208 -3.3843,5.41549 -3.8928,6.51867 -0.5087,1.10318 -4.2653,5.39516 -8.3484,9.53773 -5.87,5.95527 -8.4621,9.62431 -12.3836,17.52827 -2.728,5.49773 -6.0881,10.97544 -7.4671,12.1719 -4.287,3.72022 -6.8887,5.82618 -9.4573,7.656 -1.3619,0.96996 -3.0628,2.83085 -3.7802,4.13514 -4.9516,9.00353 -27.4497,35.72054 -30.0802,35.72054 -1.7926,0 -9.4903,7.27163 -16.8544,15.92164 -2.4821,2.91546 -5.6834,5.91647 -7.1141,6.66881 -3.3367,1.7548 -11.4187,2.55853 -16.0399,1.59476 z m -234.9943,-75.83967 c -2.15724,-1.27839 -4.32335,-3.04104 -4.8135,-3.9169 -0.49014,-0.87606 -1.43296,-1.60116 -2.09501,-1.61179 -0.66247,-0.008 -3.00895,-1.59507 -5.21531,-3.52117 -2.20636,-1.92599 -4.9141,-3.78275 -6.01728,-4.12606 -2.09718,-0.65317 -9.78445,-6.30517 -10.36271,-7.62009 -0.18368,-0.41791 -0.98441,-0.75946 -1.77927,-0.75946 -0.79454,0 -3.75056,-1.58599 -6.5685,-3.52437 -2.81795,-1.93848 -6.30466,-3.78368 -7.74815,-4.10057 -8.70109,-1.90969 -23.19151,-8.11209 -25.69072,-10.99557 -0.55205,-0.63666 -3.11234,-2.57226 -5.69048,-4.30147 -5.649,-3.78884 -8.85122,-7.65064 -8.85122,-10.67362 0,-2.47547 3.52953,-7.52155 5.26112,-7.52155 0.60674,0 4.7489,-1.75821 9.20381,-3.90699 4.45482,-2.14888 11.3656,-4.90523 15.357,-6.12542 3.9915,-1.2202 12.07666,-4.69008 17.96764,-7.7109 8.96215,-4.59577 11.95221,-5.62403 18.31651,-6.29857 5.22005,-0.55308 9.73245,-1.816 14.38435,-4.02545 6.43426,-3.0559 7.60441,-3.25908 23.06614,-4.00326 16.35791,-0.78733 19.06968,-1.31276 28.3223,-5.48793 5.82019,-2.62644 12.41254,-4.18199 21.50862,-5.07497 3.55605,-0.34878 9.16223,-1.73046 12.45784,-3.06983 9.30112,-3.77945 14.67606,-3.26486 17.21736,1.64821 2.05622,3.97623 1.84953,6.24811 -1.16261,12.77968 -1.44649,3.13628 -3.01256,7.00654 -3.48031,8.60068 -0.46744,1.59404 -2.55617,5.46306 -4.64097,8.598 -2.9459,4.42964 -5.01976,6.29785 -9.30648,8.38379 -6.13038,2.98305 -13.71136,5.65633 -16.10315,5.67872 -1.45979,0.0103 -10.97451,11.85295 -10.97451,13.65615 0,0.74192 -7.08176,15.77831 -9.16161,19.45385 -3.48661,6.15999 -6.88592,13.19284 -6.89366,14.26197 -0.0206,2.09966 -15.13245,15.14845 -19.45384,16.79109 -4.69432,1.78473 -12.72458,1.09018 -17.05299,-1.47496 z M 672.6249,500.05867 c -2.82899,-2.82899 -3.33193,-7.63474 -1.43018,-13.6642 0.60777,-1.92693 1.47754,-10.27253 1.9327,-18.54621 0.79764,-14.50363 2.66843,-23.07728 5.87922,-26.9463 1.85356,-2.2336 6.12663,-20.83574 6.10243,-26.56729 -0.041,-9.32351 -1.3637,-12.98327 -6.63405,-18.33458 -2.63995,-2.68009 -5.24895,-4.87293 -5.7977,-4.87293 -3.33595,0 -23.89164,-8.85091 -28.25317,-12.16498 -2.80887,-2.13434 -5.6392,-3.88058 -6.28949,-3.88058 -1.17314,0 -9.19422,-4.87087 -10.17512,-6.17918 -0.2817,-0.37457 -1.86088,-0.98854 -3.51013,-1.36239 -9.11869,-2.0687 -20.51885,-7.22849 -31.07917,-14.06632 -11.07378,-7.17061 -11.60623,-7.40474 -20.34033,-8.95131 -10.76793,-1.9065 -12.7837,-2.86893 -15.9107,-7.59265 -4.90708,-7.41506 -3.36608,-18.75382 3.79503,-27.92307 1.02775,-1.31554 1.8679,-3.14908 1.8679,-4.07457 0,-2.32801 4.47659,-11.39469 6.42384,-13.01123 0.87916,-0.72954 1.5992,-1.86594 1.5992,-2.52417 0,-0.65834 1.46671,-2.58279 3.25939,-4.27661 5.60566,-5.29652 8.95699,-9.6629 11.00557,-14.33822 4.66191,-10.64153 11.36766,-22.63688 15.23874,-27.25618 5.85229,-6.98548 8.09404,-9.94996 9.56941,-12.6543 0.81415,-1.49137 3.18633,-5.45088 5.27247,-8.7987 2.08615,-3.34803 3.79308,-6.76075 3.79308,-7.58398 0,-1.78896 3.71155,-9.77867 5.52899,-11.90217 0.70787,-0.82756 2.72292,-4.21211 4.47731,-7.52155 1.7544,-3.30953 3.7617,-6.46862 4.4607,-7.02026 0.69858,-0.55205 2.08016,-2.58237 3.06921,-4.51291 0.98957,-1.93053 2.13815,-3.7357 2.55337,-4.01142 0.95965,-0.63769 6.98828,-12.47083 6.98828,-13.71744 0,-0.51284 1.52491,-2.41077 3.38868,-4.21728 2.45524,-2.37981 4.59628,-3.42304 7.77229,-3.78719 6.39547,-0.73263 9.68746,-2.24206 12.01042,-5.50392 2.87934,-4.04351 7.32931,-6.15111 11.25033,-5.3285 1.75244,0.36735 6.11955,2.17849 9.70495,4.024 3.5852,1.84551 8.6109,3.62416 11.169,3.9524 4.6603,0.59849 14.652,5.89356 22.0884,11.70663 2.0197,1.57877 5.4045,3.58896 7.5216,4.4673 2.1171,0.87812 6.3313,3.0852 9.3651,4.9043 3.0336,1.81919 7.288,3.61166 9.4538,3.98345 6.7852,1.16488 31.1244,13.74138 32.4913,16.78913 0.1785,0.39934 3.5639,3.0721 7.5215,5.93917 3.9578,2.86707 11.6595,9.64824 17.1142,15.0692 5.4549,5.42096 10.1511,9.85617 10.4359,9.85617 0.2848,0 1.9139,1.06428 3.6207,2.36496 1.7068,1.30078 5.3598,3.52591 8.1177,4.94474 2.758,1.41883 7.2071,4.41643 9.8873,6.66107 2.6801,2.24454 5.2645,4.08107 5.7431,4.08107 1.3244,0 4.9311,8.0574 4.9102,10.96946 -0.052,7.43765 -4.5877,26.48298 -7.8012,32.76804 -1.851,3.62023 -3.0557,8.90261 -4.8603,21.31122 -0.2693,1.85428 -1.5888,4.46967 -2.9312,5.81214 -1.3424,1.34247 -2.4407,2.64192 -2.4407,2.88791 0,0.24559 -1.5022,2.41511 -3.3382,4.82041 -1.836,2.4053 -3.9112,6.42013 -4.6117,8.9217 -1.2864,4.59443 -5.842,10.96048 -13.1047,18.31249 -3.6203,3.66533 -12.0405,18.38287 -12.0405,21.04542 0,0.61603 -3.9488,5.41993 -8.7752,10.67661 -7.343,7.99786 -9.3232,10.90435 -12.1328,17.80914 -2.4735,6.07889 -5.0561,10.19132 -9.8094,15.61981 -3.5486,4.0527 -7.1149,7.62288 -7.9249,7.93368 -0.81,0.3106 -1.473,1.10246 -1.473,1.75925 0,0.65627 -1.8052,3.58484 -4.0115,6.50711 -2.2063,2.92227 -4.0114,5.74631 -4.0114,6.27546 0,0.52935 -0.3447,1.11287 -0.7647,1.29665 -1.1251,0.49221 -7.5983,9.91994 -9.0088,13.12071 -0.6686,1.51686 -1.5632,2.76512 -1.9888,2.77389 -0.4251,0.008 -2.3532,1.42285 -4.2836,3.14237 -1.9307,1.71942 -5.0835,3.79369 -7.0064,4.60939 -1.9232,0.81518 -8.9181,6.79418 -15.5447,13.28519 -15.4654,15.14949 -18.9433,18.07981 -25.2304,21.26098 -8.18075,4.13823 -10.88127,4.41674 -13.86783,1.43049 z M 504.11134,321.21542 c -2.42718,-0.58611 -7.57211,-2.71115 -13.17684,-5.44366 -2.28323,-1.11298 -5.93195,-2.26259 -8.10817,-2.55441 -2.86501,-0.38386 -5.67191,-1.98254 -10.17213,-5.79161 -6.69398,-5.66592 -12.89009,-8.02964 -29.12056,-11.10793 -9.49976,-1.80207 -13.70239,-3.4508 -20.54795,-8.0605 -2.80216,-1.8872 -5.50248,-3.43109 -6.00057,-3.43109 -0.49839,0 -1.40675,-0.64699 -2.01917,-1.4373 -1.91619,-2.47361 -10.78888,-6.58574 -14.21068,-6.58574 -4.45709,0 -14.63809,-3.27228 -18.30558,-5.88345 -1.65265,-1.17675 -3.4669,-2.13949 -4.03195,-2.13949 -0.56547,0 -1.66566,-0.63873 -2.44627,-1.41924 -0.7801,-0.7801 -4.53592,-3.32264 -8.34529,-5.64921 -3.80948,-2.32647 -8.20197,-5.29816 -9.76114,-6.6038 -1.55916,-1.30573 -3.81567,-2.38126 -5.0144,-2.39044 -3.58112,-0.0206 -9.86184,-4.25329 -11.89907,-8.00643 -1.44752,-2.66709 -1.80929,-4.95527 -1.50613,-9.52741 0.51801,-7.82182 2.50994,-12.73345 7.04741,-17.37978 2.02206,-2.07077 3.67647,-4.1145 3.67647,-4.5417 0,-1.14641 5.04277,-7.82285 7.85773,-10.40388 1.34329,-1.23144 4.60124,-3.62447 7.24026,-5.31777 5.48359,-3.51891 6.58584,-5.00316 13.19387,-17.76901 3.05962,-5.91089 4.80328,-10.55629 4.80328,-12.79773 0,-3.50136 3.57307,-12.52192 4.96002,-12.52192 0.40037,0 3.37939,-5.3027 6.62051,-11.78381 3.24112,-6.48111 6.86414,-12.55803 8.05121,-13.50374 1.18718,-0.94623 3.78637,-5.0079 5.77613,-9.02592 4.20201,-8.48532 6.02698,-11.12197 14.20584,-20.524937 3.30943,-3.804728 6.91986,-8.230753 8.02293,-9.835836 1.10318,-1.604979 3.69814,-4.705146 5.76664,-6.889318 2.0684,-2.184171 3.76077,-4.357508 3.76077,-4.829591 0,-0.471567 1.46661,-3.359684 3.25929,-6.416512 1.79268,-3.056829 3.93629,-6.85279 4.76375,-8.435481 1.84386,-3.527261 11.12889,-14.056314 12.39551,-14.056314 0.50562,0 2.81579,-1.692379 5.13431,-3.760774 13.97211,-12.463821 15.70608,-13.288186 27.9662,-13.288186 10.5694,0 14.32915,1.294178 18.42002,6.339638 2.43027,2.997289 8.37965,6.033274 17.31559,8.836055 4.1369,1.29748 8.10219,2.910818 8.81171,3.585252 0.70993,0.674847 2.62756,2.016285 4.26226,2.981914 1.6346,0.965836 2.97211,2.109773 2.97211,2.542336 0,0.433388 0.79145,0.786289 1.75822,0.786289 0.96686,0 4.01327,1.603741 6.76941,3.563892 2.75614,1.960151 6.98621,4.550778 9.40018,5.756938 2.41397,1.20616 5.34739,3.204903 6.51877,4.441709 1.17129,1.236806 2.8292,2.256609 3.68411,2.266102 0.85542,0.0078 1.98326,0.432356 2.50715,0.940039 1.43699,1.392 12.76471,7.100233 14.09047,7.100233 1.51747,0 12.43575,11.91218 12.43575,13.566896 0,0.702707 1.46671,2.153215 3.25928,3.223269 1.79268,1.07005 4.79399,3.258347 6.66963,4.862707 8.63815,7.38926 14.60084,12.89907 17.36069,16.04309 1.65245,1.88193 3.55946,3.42159 4.23781,3.42159 0.67898,0 3.11379,1.73583 5.41199,3.85736 3.91328,3.61281 4.17806,4.20128 4.17311,9.27667 -0.005,5.25926 -0.48292,6.45201 -5.26525,13.14878 -0.9679,1.35578 -3.30035,6.77447 -5.1827,12.04147 -1.88225,5.26721 -3.84322,10.41988 -4.35782,11.4499 -7.39494,14.80752 -7.71853,15.32397 -14.02226,22.38128 -2.34422,2.62458 -4.26216,5.23398 -4.26216,5.79873 0,0.56444 -0.66247,1.57681 -1.47249,2.24877 -1.87368,1.55503 -6.08033,9.0481 -6.88932,12.27127 -0.53967,2.14991 -2.12308,5.18724 -6.94813,13.32822 -0.65421,1.10318 -2.89214,4.74498 -4.97406,8.0929 -2.08181,3.34792 -3.78512,6.42466 -3.78512,6.837 0,0.41275 -2.03073,3.24298 -4.51291,6.29011 -2.48218,3.04713 -4.52158,5.83722 -4.53221,6.20033 -0.008,0.36322 -1.59022,2.46051 -3.51002,4.66088 -1.92001,2.20017 -3.49084,4.53768 -3.49084,5.19416 0,0.6573 -1.80527,3.91142 -4.01152,7.23303 -2.20636,3.32182 -4.01162,6.48255 -4.01162,7.02398 0,0.54173 -2.03073,2.64862 -4.51291,4.68255 -2.48207,2.03393 -4.51291,4.29508 -4.51291,5.02461 0,0.72954 -0.83788,1.9164 -1.8614,2.63706 -2.01009,1.41512 -5.50145,7.7884 -6.48647,11.84098 -0.33536,1.379 -2.4762,4.98324 -4.75778,8.00932 -5.91708,7.84834 -11.2171,9.9866 -24.5023,9.88589 -5.51579,-0.0413 -10.93138,-0.29409 -12.03445,-0.55928 z"
     id="path49055-8"
     style="fill:none;stroke:#ffffff;stroke-width:64.203;stroke-miterlimit:4;stroke-dasharray:none;stroke-opacity:1"
     sodipodi:nodetypes="cccssssssscssccssscsssscsssssscsccscsccscsssccsccssssccccssssssccssccccsccscscsssccccccccsccccsscsscssccssssccsccsccscscssssscsscssscscssssscccsccccscccccscsccsccssssccssssssssssscsssscsssscssssssssssssccscsccsscscssscccccssssssscsssscssscssssscsccsscsscsscccscsccscsssssccsssscsscccscssssscsscsssssscssssssccsssscsccsccssssscccscssssscssccssssssccsscssscssscscscccscssccssscscssccscscssscscccssscccccsscccscssssccsssssscscsssscscsscsssssssscsssscscsscscssssscssscscssscssscsssscsscsccscssscccscscsssccsssssscssscccscsscsccccccscsccsssccccccscsscccsscscccsscccscscsscssssssscscsssccsssscsssscccccccccccsccscsssscsccccsccsssscsscssscscsssscsssssccsssccscscccsscscsssccssssscccccc" />
  <path
     d="m 379.79517,1177.8634 3.66956,-7.733 -0.35084,-12.1949 c -0.33639,-11.7087 -0.47776,-12.3946 -3.53841,-17.1854 -1.75326,-2.7445 -4.11574,-7.3587 -5.24987,-10.2533 -2.57195,-6.5649 -6.35966,-12.3897 -11.87916,-18.2685 -4.55883,-4.8557 -7.70687,-10.7459 -11.14993,-20.8618 -1.17634,-3.4565 -3.71641,-8.529 -5.64447,-11.2724 -1.92816,-2.7433 -3.50579,-5.3969 -3.50579,-5.8971 0,-0.4994 -1.68547,-2.3891 -3.74561,-4.1978 -2.05993,-1.8086 -4.23987,-4.2249 -4.84414,-5.369 -5.16547,-9.781 -11.32453,-19.6445 -13.51076,-21.6361 -0.30234,-0.2755 -1.85562,-3.116 -3.45111,-6.3117 -1.7189,-3.4426 -7.10271,-10.3897 -13.21286,-17.0488 -5.6715,-6.1814 -10.3267,-11.7869 -10.34383,-12.4579 -0.0206,-0.6696 -1.40149,-2.6197 -3.07509,-4.3316 -1.6735,-1.7118 -4.38093,-5.90189 -6.01656,-9.3111 -1.63552,-3.40922 -3.86664,-7.32694 -4.95796,-8.70584 -1.09131,-1.37889 -1.9943,-3.01018 -2.00648,-3.62487 -0.0206,-0.615 -1.39437,-2.64563 -3.07117,-4.51301 -3.06859,-3.41706 -10.46105,-17.57842 -13.55193,-25.96045 -2.55049,-6.91677 -2.81537,-10.43298 -1.04437,-13.85778 0.87916,-1.70022 1.59859,-5.1342 1.59859,-7.63093 0,-5.99458 -2.33142,-7.50421 -13.23494,-8.56973 -6.48679,-0.63357 -9.93872,-1.61313 -15.62374,-4.432 -4.01358,-1.99029 -7.95989,-3.61859 -8.7695,-3.61859 -3.00048,0 -10.07482,-8.64299 -14.77532,-18.05173 -2.61787,-5.24007 -4.75984,-10.00703 -4.75984,-10.59345 1.1e-4,-0.5861 -1.32297,-2.33358 -2.94012,-3.88294 -1.61716,-1.54936 -4.33429,-5.58266 -6.03802,-8.96277 -3.80783,-7.55436 -8.59625,-14.34421 -11.03674,-15.65098 -2.18923,-1.17159 -6.81502,-9.25964 -10.05078,-17.57243 -1.28809,-3.30943 -3.09026,-6.91986 -4.0046,-8.02304 -3.0978,-3.73714 -4.85622,-7.15905 -6.46832,-12.58713 -0.88431,-2.97644 -2.98088,-7.12128 -4.65995,-9.21052 -1.67896,-2.08934 -4.00512,-6.83349 -5.16938,-10.54236 -3.53015,-11.24724 -5.97116,-14.38022 -13.65812,-17.53219 -13.56606,-5.56274 -19.2713,-13.21998 -20.74967,-27.85002 -1.13837,-11.26829 -6.30414,-17.38586 -16.51435,-19.55611 -5.634247,-1.1978 -10.31855,-4.01647 -14.856636,-8.93986 -4.563883,-4.95125 -14.210786,-19.18205 -14.251854,-21.02426 -0.02064,-0.61912 -2.175401,-3.70928 -4.803072,-6.86785 -2.627775,-3.15857 -6.339432,-8.78188 -8.248299,-12.49591 -1.908866,-3.71393 -4.484635,-7.59265 -5.724124,-8.61844 -1.239386,-1.02568 -4.208195,-4.87974 -6.597297,-8.56426 -2.389205,-3.68441 -5.098395,-7.31837 -6.020272,-8.07545 -0.922497,-0.7574 -1.676386,-1.76854 -1.676386,-2.24774 0,-0.47879 -1.561331,-2.9167 -3.469475,-5.41662 -7.660336,-10.03582 -7.52031,-21.98205 0.355997,-30.3842 1.712501,-1.82663 3.113478,-3.78472 3.113478,-4.35101 0,-0.5665 2.030835,-3.35153 4.512909,-6.18898 2.482177,-2.83746 4.512908,-5.46183 4.512908,-5.83196 0,-0.37044 1.624379,-3.53706 3.609811,-7.03739 1.985432,-3.50043 4.451305,-9.07215 5.479879,-12.38158 2.66193,-8.5655 6.472956,-14.04424 18.20724,-26.17404 5.670776,-5.86209 10.93035,-11.3075 11.686509,-12.09978 1.025684,-1.07428 1.183148,-2.77079 0.619125,-6.65591 -1.829722,-12.59115 -1.347939,-15.80833 3.876963,-25.89832 2.677821,-5.17125 6.852375,-11.44887 9.276566,-13.95003 2.42429,-2.50117 4.40776,-5.00439 4.40776,-5.56305 0,-0.55928 1.80516,-2.77833 4.01152,-4.93278 2.20636,-2.15435 4.01152,-4.3606 4.01152,-4.90255 0,-0.54173 0.82344,-1.91712 1.82982,-3.0559 1.00608,-1.13857 3.09346,-4.95981 4.63787,-8.49151 1.54451,-3.53159 4.73734,-8.94708 7.09538,-12.03445 4.19437,-5.49206 10.99247,-12.13187 12.42059,-12.13187 1.68918,0 5.98446,-5.89934 7.66704,-10.53019 2.65646,-7.31125 7.38689,-14.23183 14.39436,-21.06037 7.62607,-7.43085 9.7474,-10.73595 12.04859,-18.77096 2.32316,-8.11095 5.34604,-13.69227 8.55704,-15.79822 3.87459,-2.54182 8.93387,-9.02819 10.97451,-14.07045 2.86314,-7.07485 3.49445,-8.3033 6.0924,-11.85904 1.33999,-1.83395 3.14062,-5.66995 4.00141,-8.52443 1.69382,-5.6166 5.8724,-12.19202 11.82189,-18.60142 2.0685,-2.22854 3.76088,-4.51321 3.76088,-5.07703 0,-1.03642 6.71947,-7.93626 13.4085,-13.76852 2.00194,-1.74563 3.63984,-3.80474 3.63984,-4.57596 0,-1.60539 4.50795,-11.24125 6.31518,-13.49879 0.66349,-0.8286 3.12441,-3.65449 5.46863,-6.27917 2.34422,-2.62468 4.26237,-5.22346 4.26237,-5.7751 0,-1.88173 16.78614,-19.34757 18.59419,-19.34757 0.60468,0 2.87326,-1.60302 5.04185,-3.56224 6.2834,-5.67655 13.77957,-8.83389 19.39472,-8.16884 2.58238,0.30543 6.02894,1.22009 7.6592,2.03176 3.79184,1.88761 6.89087,2.76522 24.02496,6.80275 10.29461,2.42594 15.41127,4.17651 19.177,6.56138 2.82527,1.78886 6.4356,3.55482 8.02304,3.92412 3.4768,0.80899 11.0226,4.99882 12.12381,6.73248 1.25662,1.97759 10.36076,5.54602 15.74921,6.17278 2.71115,0.31575 7.29299,1.8128 10.18214,3.3278 5.61464,2.94425 13.76966,7.00561 19.488,9.70634 1.93054,0.91114 5.61351,3.10512 8.18433,4.87437 13.33121,9.17441 16.12223,10.48303 23.90752,11.20824 4.1369,0.38592 10.06894,1.33968 13.1818,2.12122 3.11297,0.78113 9.08907,1.4209 13.27921,1.4209 7.0991,0 7.91924,0.22907 12.02445,3.36257 2.42295,1.84953 5.43984,4.32645 6.7041,5.50444 1.26446,1.17788 3.18209,2.42202 4.26144,2.7646 1.07944,0.34258 4.7231,2.37424 8.09692,4.51476 3.37392,2.14063 7.09466,3.89626 8.26842,3.90153 2.45782,0.008 6.4808,1.60136 18.42486,7.28349 4.68843,2.2304 12.4988,5.34367 17.35584,6.91831 4.85704,1.57465 10.18719,3.5641 11.84397,4.42108 1.65668,0.85748 6.70895,2.41128 11.22619,3.4543 14.10244,3.25598 15.08933,3.60249 20.95214,7.3613 3.14505,2.01639 6.07857,3.6709 6.51866,3.67678 0.43958,0.006 3.05673,1.8063 5.81473,4.001 2.75789,2.19459 5.7139,3.9949 6.56881,4.00078 0.85543,0.006 1.98327,0.39831 2.50715,0.87194 0.5242,0.47466 4.23946,1.38313 8.25635,2.02072 5.6781,0.90083 8.35644,1.93817 12.03456,4.65933 2.60208,1.92497 7.76786,5.51961 11.47889,7.98817 3.71114,2.46845 7.31776,5.39959 8.01345,6.51381 0.69548,1.11422 1.65884,2.02578 2.1399,2.02578 1.31936,0 13.03847,8.98981 14.18767,10.8833 1.48508,2.4475 1.23588,26.81288 -0.33639,32.93045 -0.73573,2.8616 -2.65553,7.28123 -4.26639,9.82119 -2.64253,4.16692 -3.02144,5.86343 -3.87717,17.36183 -0.85336,11.46094 -2.31151,18.41784 -6.1408,29.29113 -1.30181,3.69618 -5.77902,12.83674 -7.12273,14.54171 -4.85972,6.16525 -6.27473,7.52155 -7.84648,7.52155 -1.00814,0 -1.98347,0.36115 -2.16735,0.80279 -0.83582,2.00721 -11.02157,6.47255 -17.66365,7.74351 -7.01056,1.34144 -15.26382,4.95383 -15.26382,6.68108 0,0.4499 -0.59229,0.81828 -1.31595,0.81828 -0.72334,0 -3.18416,0.90289 -5.46739,2.00576 -3.71372,1.79433 -6.20374,2.00587 -23.61881,2.00587 -23.30089,0 -28.10871,0.78835 -37.29199,6.11695 -7.03687,4.08314 -13.73241,6.87787 -16.54747,6.90666 -0.82756,0.008 -3.29746,1.61127 -5.48896,3.56172 -2.1916,1.95045 -5.12501,3.8682 -6.51877,4.26144 -1.39365,0.39315 -11.64038,0.71509 -22.7703,0.71509 -23.11628,0 -23.02506,0.031 -29.07144,-9.0966 -7.22107,-10.89733 -9.52308,-13.42161 -15.58566,-17.09209 -3.47071,-2.10121 -7.18526,-4.62755 -8.25449,-5.61423 -1.06933,-0.98647 -2.36382,-1.79371 -2.87666,-1.79371 -1.89772,0 -15.89471,-15.32903 -20.9833,-22.97998 -1.25228,-1.88296 -4.53334,-4.89047 -7.29123,-6.68325 -5.82628,-3.7874 -13.907,-11.77886 -15.80534,-15.63085 -1.32504,-2.68855 -12.63336,-11.87008 -14.62003,-11.87008 -0.58611,0 -1.42698,-0.61087 -1.86811,-1.35795 -0.44061,-0.74708 -1.87007,-1.91908 -3.17549,-2.60507 -1.96727,-1.03363 -2.63686,-0.98338 -3.91195,0.29202 -2.43822,2.43822 0.0206,18.48306 3.94383,25.73488 2.635,4.87065 3.05074,6.81172 3.55378,16.59266 0.31369,6.09188 0.24559,14.10543 -0.15065,17.80801 -0.62945,5.87746 -1.2559,7.39896 -4.9367,11.98946 -2.31873,2.89204 -5.05877,7.17608 -6.089,9.5204 -1.02981,2.34421 -2.15332,4.26216 -2.4958,4.26216 -0.34155,0 -1.51386,1.69228 -2.60331,3.76078 -1.08956,2.06839 -5.47947,8.18411 -9.75546,13.59001 -4.27589,5.4063 -7.77642,10.59643 -7.7789,11.53306 -0.002,0.93695 -1.92032,3.77574 -4.26216,6.30858 -3.4185,3.69711 -5.45728,4.93299 -10.34074,6.26792 -3.34565,0.91425 -8.32238,1.66298 -11.05871,1.66298 -5.02482,0 -9.46416,2.0397 -9.40049,4.31912 0.0516,1.70497 3.13411,5.17929 6.02533,6.782 5.57945,3.09305 18.0377,6.00077 29.87878,6.97342 7.00303,0.57475 13.61705,1.6609 15.24369,2.5024 1.58094,0.81724 3.54151,1.48631 4.35679,1.48631 0.81518,0 2.07892,0.59436 2.80773,1.31926 0.72954,0.7254 3.58175,2.61436 6.33964,4.19756 2.7579,1.583 6.99044,4.21016 9.40565,5.83794 2.41531,1.62779 6.33974,3.54604 8.72111,4.26278 5.20581,1.5667 8.15274,3.08263 10.81694,5.5646 2.97583,2.77224 11.01362,6.74259 16.9497,8.37274 2.88925,0.79352 6.38153,1.76988 7.76042,2.16983 1.379,0.39934 5.66634,2.40045 9.52742,4.44522 6.21086,3.28941 8.09083,3.78141 16.30869,4.26866 6.84154,0.40553 10.53927,1.16231 14.0364,2.87171 5.81317,2.84158 21.48664,18.3386 24.44709,24.17128 1.17913,2.32347 3.21048,5.50031 4.51415,7.05947 1.30357,1.55917 2.37011,3.20356 2.37011,3.65408 0,0.45093 2.59497,3.49001 5.76654,6.75404 5.58152,5.74424 11.28242,14.75231 11.28242,17.82813 0,0.8255 1.80455,4.10078 4.01018,7.27823 2.20564,3.17735 4.0108,6.34511 4.01152,7.03925 7.2e-4,0.69445 3.61167,5.28888 8.02428,10.21031 4.41271,4.92153 8.02304,9.21465 8.02304,9.54031 0,0.77597 5.15391,8.6953 6.76766,10.39883 0.69033,0.72953 1.25538,1.66906 1.25538,2.08924 0,0.421 1.58651,2.35061 3.52551,4.28961 2.48537,2.48537 3.97943,5.27123 5.06465,9.44383 1.735,6.67056 5.49752,11.25817 11.78381,14.36814 4.96333,2.45566 10.15717,9.63865 11.88907,16.44325 1.17933,4.63271 2.59372,6.46594 13.11163,16.99479 6.48431,6.49091 11.7899,12.07253 11.7899,12.40345 0,0.33124 1.34185,2.1301 2.98192,3.99801 1.63996,1.868 3.7293,5.98921 4.64282,9.15831 1.88255,6.53063 3.6095,9.2357 11.42586,17.89633 3.26475,3.61776 7.31022,9.76423 9.90095,15.0432 2.40932,4.90925 6.13254,11.22423 8.27378,14.0333 2.14125,2.80887 3.89317,5.75674 3.89317,6.55107 0,0.79455 3.52633,5.26556 7.83627,9.93614 8.76929,9.50316 15.58968,18.42486 16.65777,21.7895 0.39005,1.22938 1.37508,2.90081 2.18851,3.71434 0.81311,0.81312 2.49064,3.2599 3.72703,5.43664 1.23629,2.17664 5.76385,7.6622 10.06089,12.18997 7.96618,8.39379 10.69869,13.43553 16.05805,29.627 1.20183,3.63117 3.67998,7.23511 8.62019,12.53612 5.54746,5.9526 7.37007,8.7426 9.11868,13.9579 1.20214,3.5853 2.76471,7.1957 3.47268,8.0231 3.23668,3.7825 6.5003,11.19 6.49163,14.7342 -0.0206,4.9177 -4.42468,12.6022 -10.25447,17.8593 -7.72091,6.9614 -9.77104,8.5244 -11.18099,8.5244 -2.31409,0 -13.10462,5.1115 -13.95715,6.6111 -0.44062,0.777 -1.38705,1.412 -2.10214,1.412 -0.71509,0 -3.09676,1.918 -5.29239,4.2623 -5.23109,5.5848 -10.2555,9.7942 -13.36537,11.1981 -1.379,0.6222 -5.08054,2.8138 -8.2257,4.8702 -3.14505,2.0564 -6.17557,3.7388 -6.73454,3.7388 -0.55927,0 -2.49848,1.3008 -4.31024,2.8904 -7.16731,6.2888 -16.23874,10.5343 -25.9846,12.161 -8.39513,1.4013 -12.37053,3.1236 -13.92794,6.0343 -1.27674,2.3854 -2.27612,1.9779 13.26507,5.4063 14.16961,3.1256 36.42346,3.6487 46.25775,1.0871 3.17642,-0.8276 8.70438,-1.5043 12.28417,-1.5043 6.17753,0 6.72143,0.1981 10.69167,3.9019 l 4.18302,3.9019 0.79558,17.9103 c 0.75224,16.9457 0.95345,18.2353 3.72878,23.9278 l 33.71423,-9.0289 2.28974,-4.1673 c 2.9104,-5.2966 7.81831,-8.5311 17.25554,-11.3715 8.60935,-2.5913 17.01088,-6.0622 17.01088,-7.028 0,-0.3643 1.24104,-1.2967 2.75779,-2.0724 1.51696,-0.7759 4.72063,-2.9955 7.11932,-4.933 10.09701,-8.1559 13.18882,-11.3425 13.18882,-13.59 0,-2.8024 -4.61145,-6.8635 -9.70118,-8.5434 -9.51389,-3.1399 -15.33811,-7.7146 -29.3613,-23.0612 -8.46479,-9.2642 -8.7761,-9.7767 -9.44259,-15.5445 -1.66989,-14.4525 -5.89315,-29.9138 -10.81705,-39.6017 -2.67452,-5.2624 -4.86282,-10.0819 -4.86282,-10.7087 0,-0.6274 -1.62056,-3.8614 -3.60135,-7.1863 -2.75738,-4.6289 -3.72868,-7.5243 -4.14566,-12.3575 -0.59436,-6.89321 -1.24362,-8.57301 -5.34264,-13.83366 -2.61942,-3.36154 -4.11739,-8.26708 -5.51269,-18.05184 -0.35394,-2.48218 -2.67401,-8.57468 -5.15567,-13.53893 -4.52188,-9.04563 -6.2284,-13.4245 -8.27709,-21.23889 -0.60364,-2.30449 -2.66935,-6.52435 -4.58916,-9.37738 -1.92001,-2.85314 -3.49104,-5.81256 -3.49104,-6.57666 0,-0.76359 -1.64522,-4.44181 -3.65614,-8.17287 -2.01092,-3.73116 -4.23389,-7.91211 -4.94,-9.29111 -0.70581,-1.3789 -1.95293,-5.78181 -2.7709,-9.78435 -1.4633,-7.16039 -5.01182,-14.65604 -8.18463,-17.28959 -0.88845,-0.73779 -3.47938,-4.53747 -5.75756,-8.44456 -3.13587,-5.37824 -8.60419,-11.5081 -22.51161,-25.23339 -10.10299,-9.97153 -18.38069,-18.77188 -18.3938,-19.55611 -0.0516,-2.9136 -7.09425,-10.91538 -14.54264,-16.52146 -4.22646,-3.18096 -8.19175,-6.95257 -8.8118,-8.38151 -1.3564,-3.12587 -5.71298,-10.10506 -7.45737,-11.94634 -0.69032,-0.72954 -1.25548,-1.92888 -1.25548,-2.66678 0,-0.73779 -3.18261,-4.65458 -7.07279,-8.70356 -3.89006,-4.04908 -8.86907,-9.2261 -11.0647,-11.50511 -2.19552,-2.27838 -5.05526,-6.34005 -6.35511,-9.02592 -1.29986,-2.68576 -3.75985,-6.46274 -5.46688,-8.39327 -1.70693,-1.93054 -3.1108,-4.111 -3.11967,-4.84559 -0.0206,-1.76038 -5.62733,-8.7049 -15.59866,-19.32239 -7.05937,-7.51649 -8.25717,-9.33042 -9.33135,-14.1305 -0.86781,-3.87893 -0.93076,-6.30156 -0.21154,-8.19289 1.34639,-3.54109 5.41921,-5.09148 9.49935,-3.61631 1.69991,0.615 7.45231,1.51263 12.7837,1.99544 5.33087,0.48292 12.39159,1.57722 15.68905,2.43182 3.74364,0.96997 10.46404,1.56185 17.88633,1.57495 12.60818,0.0206 19.28534,1.15777 31.4462,5.34842 8.94131,3.08118 25.412,6.65787 30.77631,6.68336 2.32472,0.008 5.92823,1.17871 9.19433,2.97902 4.83609,2.66585 8.67508,3.70609 20.35137,5.51476 2.01267,0.31163 6.54323,2.09708 10.06791,3.96746 6.84773,3.63396 21.85667,8.04378 30.90065,9.07896 8.57365,0.98131 15.17962,2.5995 19.51607,4.78037 2.18407,1.09843 7.59966,2.79783 12.03446,3.77646 16.17744,3.56925 15.71712,3.33378 27.1179,13.88873 2.20625,2.04291 6.26792,5.2539 9.02582,7.13563 2.75799,1.88173 5.61072,4.00688 6.33963,4.72259 0.72954,0.71612 1.67433,1.30129 2.1009,1.30129 0.4272,0 4.33378,3.49755 8.68272,7.7723 4.34884,4.27475 8.63701,8.22364 9.52917,8.77517 17.28856,10.68972 21.3332,14.6611 28.59111,28.08064 0.59642,1.10308 3.68111,3.35958 6.85423,5.0143 3.17343,1.65482 8.10002,5.4547 10.94851,8.44415 12.0034,12.5992 14.51364,14.83455 17.29558,15.40528 3.70629,0.75946 11.89412,8.47325 13.7775,12.97925 2.35495,5.6361 7.49596,10.80796 10.74286,10.80796 3.40127,0 5.13358,-1.61633 10.2103,-9.5273 3.9104,-6.09292 12.86688,-14.54171 15.4153,-14.54171 1.86542,0 11.44887,-5.94835 11.44887,-7.10622 0,-0.50459 0.47879,-0.91734 1.06365,-0.91734 0.58508,0 4.67399,-3.61032 9.0866,-8.02293 4.41271,-4.41272 8.51947,-8.02304 9.12622,-8.02304 1.92517,0 13.63809,-8.44013 14.616,-10.53122 1.59332,-3.40953 11.33546,-14.54078 12.7255,-14.54078 4.08479,0 15.56061,-9.909 15.56061,-13.43657 0,-2.04962 4.86669,-6.41693 8.47899,-7.60916 1.9555,-0.64492 3.5555,-1.58971 3.5555,-2.09842 0,-0.50872 0.7894,-0.93282 1.7551,-0.94107 0.9648,-0.008 3.3346,-1.4179 5.2651,-3.13143 1.9305,-1.71354 4.4619,-3.74736 5.6253,-4.51972 1.7357,-1.1523 8.4151,-12.19296 8.4151,-13.90886 0,-0.87297 -2.5478,-0.51388 -5.4446,0.76668 -9.6271,4.25577 -13.1648,6.5067 -14.5799,9.27656 -0.8451,1.65482 -1.7629,3.23431 -2.0387,3.51014 -0.2755,0.27551 -1.5963,2.08098 -2.9344,4.01152 -1.3382,1.93053 -3.0306,3.87097 -3.7609,4.3121 -0.7295,0.44061 -1.3278,1.40748 -1.3278,2.14754 0,0.84098 -2.53829,1.92146 -6.76938,2.8811 -10.38583,2.35567 -11.71458,3.09676 -20.05451,11.18512 -4.27619,4.14721 -8.22621,7.54363 -8.77775,7.54755 -2.51035,0.0206 -17.49927,10.8251 -24.40004,17.59348 -4.19798,4.11708 -8.11622,7.48554 -8.70728,7.48554 -1.07924,0 -3.57369,2.13144 -15.41715,13.17282 -3.52169,3.28343 -7.76858,6.67593 -9.43743,7.53888 -4.5092,2.33184 -12.92208,1.39634 -20.78167,-2.31067 -5.79068,-2.73128 -10.14602,-6.72567 -39.86043,-36.55792 -18.34757,-18.42083 -34.11691,-34.61943 -35.0425,-35.99842 -0.92559,-1.3789 -2.0007,-2.73282 -2.38931,-3.00854 -1.42718,-1.0133 -2.79463,-8.61885 -2.11524,-11.76576 0.81312,-3.76789 8.03326,-13.30614 10.07193,-13.30614 1.67959,0 7.44654,-6.02213 11.06078,-11.54916 3.63984,-5.56728 8.49905,-11.95036 9.40287,-12.35248 0.41378,-0.18471 0.75223,-1.12103 0.75223,-2.08264 0,-0.96171 3.4087,-4.75684 7.5749,-8.43393 8.88837,-7.84484 13.3243,-13.38838 17.10014,-21.36932 1.66679,-3.52324 5.36668,-8.44972 9.42257,-12.54606 6.71782,-6.78479 11.10681,-11.92714 14.21678,-16.65675 0.92456,-1.40582 5.0276,-6.01067 9.11816,-10.23239 5.10232,-5.26648 8.02016,-9.23435 9.29328,-12.63831 2.0976,-5.60762 6.01697,-12.43761 8.08454,-14.0884 5.56047,-4.43996 14.44554,-12.9843 14.44554,-13.89183 0,-0.60778 0.78939,-1.82075 1.75502,-2.69516 0.96583,-0.874 4.665,-4.69792 8.22157,-8.49657 3.55656,-3.79875 11.94726,-12.56804 18.64651,-19.4879 10.36075,-10.70179 20.51792,-24.15239 20.51792,-27.17207 0,-0.42204 3.46122,-4.41488 7.69181,-8.87248 4.23058,-4.4576 9.06698,-10.00744 10.74781,-12.33339 1.68074,-2.32554 3.63483,-4.58907 4.34263,-5.0303 0.7079,-0.44061 1.287,-1.27085 1.287,-1.84416 0,-0.57269 3.34,-4.40384 7.4221,-8.51257 4.6051,-4.63508 8.425,-9.58839 10.0639,-13.05044 3.2164,-6.79304 8.4614,-13.26713 14.9881,-18.50008 6.0724,-4.86912 11.173,-5.29734 16.8824,-1.41759 2.0294,1.37899 3.9661,2.50725 4.3042,2.50725 2.7537,0 20.5529,19.7858 20.5529,22.84655 0,0.58301 2.1619,3.46648 4.8041,6.40671 6.3517,7.06814 11.2422,13.42759 11.2422,14.61993 0,0.52935 7.0349,8.12292 15.6329,16.87446 8.5981,8.75145 16.2817,17.16619 17.075,18.69966 0.7925,1.53336 1.7687,2.79875 2.1681,2.81175 0.3994,0.0206 2.0541,1.81817 3.6767,4.01152 1.6226,2.19326 3.4808,3.98779 4.129,3.98779 1.952,0 10.5613,10.21237 12.6824,15.0432 2.9675,6.75941 2.1776,21.42948 -1.5661,29.08342 -4.0724,8.326 -4.8735,9.50337 -10.7549,15.80544 -2.9893,3.20295 -7.3648,8.39968 -9.7234,11.54814 -2.3585,3.14835 -14.0412,15.54355 -25.9625,27.54602 -20.0676,20.20299 -23.34,24.10916 -32.8031,39.14834 -1.6623,2.64201 -5.2867,5.99334 -9.4362,8.72564 -3.7054,2.43987 -7.7011,5.27887 -8.8792,6.30878 -2.315,2.02393 -11.7015,20.87795 -11.1781,22.45145 0.1754,0.52626 2.3417,-0.41378 4.8137,-2.08841 2.4721,-1.67484 5.0266,-3.05332 5.6767,-3.06333 0.6501,-0.008 1.7783,-0.60365 2.5071,-1.31874 3.2399,-3.1791 15.4353,-11.84191 17.3459,-12.32132 6.0503,-1.51861 10.6806,4.2372 10.8712,13.51479 0.1083,5.2573 -1.7273,14.3862 -3.3487,16.65478 -1.8653,2.61075 -3.0237,9.14954 -3.8231,21.58292 l -0.8719,13.55988 -5.6629,11.64647 c -3.1147,6.40568 -5.6632,12.81476 -5.6632,14.24185 0,2.86428 -3.5347,10.97957 -7.4889,17.19435 -4.7419,7.452 -5.7805,10.65659 -5.3538,16.51538 0.2219,3.05146 1.2058,7.12768 2.1854,9.05821 2.8587,5.63343 5.6419,13.36434 5.6425,15.67296 1e-4,1.17365 -0.7058,3.82495 -1.5696,5.89159 -0.8636,2.06664 -2.2248,8.77838 -3.0252,14.91484 -0.8008,6.13646 -1.8626,12.51087 -2.3602,14.16559 -0.4974,1.65482 -1.2072,5.26514 -1.5764,8.02304 -0.9122,6.80873 -2.9767,14.35421 -5.028,18.37172 -1.0061,1.97026 -2.0479,7.49616 -2.5531,13.53893 -0.4695,5.61537 -1.3234,11.78681 -1.8976,13.71332 -0.5748,1.92651 -1.0489,4.63467 -1.0549,6.01728 -0.01,1.38251 -1.8062,6.34985 -4.0006,11.03859 -3.0114,6.43395 -3.9927,9.78487 -4.0008,13.66328 -0.021,5.82781 -1.7366,11.40571 -5.2739,17.05991 -3.1409,5.0208 -4.5472,9.2219 -5.8045,17.3378 -0.9834,6.3499 -4.1374,18.775 -6.1659,24.2927 -0.5365,1.46 -4.3253,6.0365 -8.4187,10.1702 -4.09357,4.1338 -7.44283,7.9937 -7.44283,8.5782 0,0.584 -0.5892,1.4234 -1.30883,1.8646 -0.72025,0.4406 -2.61126,2.6071 -4.20304,4.8135 -1.59177,2.2062 -9.07999,10.3296 -16.64085,18.0517 -13.98501,14.284 -15.93567,17.2966 -15.95166,24.6387 -0.0206,7.1308 -3.02938,13.0084 -10.58137,20.6332 -4.09521,4.1352 -8.22694,8.8409 -9.18153,10.457 -0.95448,1.6161 -2.07366,2.9386 -2.48641,2.9386 -0.41275,0 -1.84365,1.6087 -3.17972,3.5749 -1.33597,1.9663 -3.78492,4.3356 -5.44201,5.2651 -3.96385,2.2239 -11.07378,10.6125 -11.89206,14.0304 z m 397.5104,-436.61885 c -3.32078,-0.69239 -8.57303,-3.75108 -11.76782,-6.85269 -0.72953,-0.70787 -1.89101,-1.28654 -2.58257,-1.28654 -0.69136,0 -3.93114,-2.07696 -7.1993,-4.61558 -8.4427,-6.55819 -10.42184,-7.37802 -20.24901,-8.38709 -9.66218,-0.99266 -13.78565,-2.28643 -19.78983,-6.21251 -17.05092,-11.14797 -19.95524,-12.66029 -24.57845,-12.80073 -3.22988,-0.0929 -11.00362,-4.21789 -18.12314,-9.60532 -3.07726,-2.32842 -7.81584,-5.35553 -10.53019,-6.72659 -2.71425,-1.37136 -7.1671,-3.91586 -9.89507,-5.65478 -2.72797,-1.73892 -5.56656,-3.16156 -6.30786,-3.16156 -2.31212,0 -8.65578,-3.66058 -12.59218,-7.26596 -4.55801,-4.17496 -6.09044,-8.71264 -4.69411,-13.89885 1.09544,-4.06837 8.29865,-14.44347 12.16293,-17.52032 1.33483,-1.06252 3.04403,-3.51137 3.79833,-5.4419 3.69731,-9.46333 8.33425,-17.90542 11.54308,-21.01529 1.95592,-1.89576 3.55625,-3.95363 3.55625,-4.57275 0,-0.61913 3.61033,-6.02801 8.02304,-12.0195 4.41261,-5.99148 8.02294,-11.45691 8.02294,-12.14486 0,-0.68827 0.5923,-1.84737 1.31636,-2.57629 6.2186,-6.26018 15.12947,-16.93256 16.17951,-19.37656 0.71096,-1.65482 2.59289,-4.44914 4.18332,-6.20973 5.77355,-6.39154 7.69883,-9.58385 9.82563,-16.29176 1.253,-3.95209 3.52633,-8.38255 5.39052,-10.50615 1.77307,-2.01938 4.3024,-5.79863 5.62062,-8.39833 1.31833,-2.59961 3.34834,-5.58627 4.51105,-6.63713 1.16272,-1.05076 2.11421,-2.46381 2.11421,-3.14031 0,-0.67588 1.5633,-2.42233 3.47423,-3.87985 1.91093,-1.45742 4.12234,-4.10594 4.91441,-5.88561 0.79248,-1.77958 2.93878,-6.62021 4.77046,-10.75679 1.83179,-4.13689 3.56905,-7.74722 3.86087,-8.02304 2.40159,-2.27075 8.05183,-10.13818 8.05183,-11.21123 0,-0.74089 1.54977,-3.13979 3.44399,-5.3317 3.24081,-3.75015 7.63175,-13.33121 9.19432,-20.06152 0.38386,-1.65482 1.308,-3.89884 2.05302,-4.98685 0.74501,-1.08801 1.35475,-2.58495 1.35475,-3.32666 0,-0.74192 1.4666,-2.79866 3.25928,-4.57101 5.78325,-5.71752 10.68476,-11.85501 13.65326,-17.09704 1.59456,-2.81568 3.85715,-5.979 5.02782,-7.02986 1.17066,-1.05066 2.12834,-2.37569 2.12834,-2.94436 0,-0.56856 3.04631,-5.48276 6.76942,-10.92034 3.72321,-5.43757 7.53929,-11.29635 8.48016,-13.01835 0.94107,-1.72251 3.49744,-4.97457 5.6813,-7.22674 3.85695,-3.97726 8.96834,-11.53007 11.25426,-16.63074 0.61809,-1.379 1.50292,-3.18416 1.96603,-4.01152 2.17695,-3.88904 6.96671,-14.37217 6.96671,-15.24668 0,-0.54071 1.5961,-2.84643 3.54717,-5.12564 1.95097,-2.27921 3.77657,-5.28434 4.05713,-6.6782 1.47259,-7.31765 2.82961,-10.39377 5.97064,-13.5348 4.73425,-4.73435 10.02529,-6.07754 15.68802,-3.98294 2.38322,0.88122 5.91275,1.96335 7.84329,2.40396 6.42477,1.4664 11.162,4.13452 18.90324,10.64555 3.46328,2.91309 22.03725,12.50685 27.0436,13.96913 1.27705,0.37353 7.28835,5.54323 13.35836,11.48993 6.07,5.9468 12.24609,11.42689 13.72436,12.17799 3.68936,1.87595 11.80589,10.06987 12.66937,12.79072 0.65317,2.05777 5.51124,5.80771 11.58022,8.93842 5.91812,3.05311 7.70378,4.474 14.68411,11.68454 4.04908,4.1824 7.66157,7.60441 8.02789,7.60441 0.36631,0 2.06251,1.06314 3.76934,2.36248 1.70692,1.29934 4.90853,3.28364 7.11488,4.40931 4.80719,2.45287 11.53309,9.46405 11.53309,12.02259 0,1.00814 1.5795,4.28414 3.5101,7.28071 4.208,6.53157 4.6961,10.0094 2.3217,16.54747 -1.3761,3.78935 -8.4004,18.07186 -10.8511,22.06325 -1.0164,1.65482 -2.8169,5.60391 -4.0021,8.7759 -1.1852,3.17199 -2.69229,6.33107 -3.34909,7.02016 -2.14472,2.2498 -4.67839,6.66612 -4.67839,8.15419 0,0.80074 -0.36838,1.60643 -0.81827,1.79031 -2.64161,1.07975 -10.28749,12.55411 -12.66731,19.00859 -1.50055,4.07003 -3.17457,8.5881 -3.72001,10.03984 -0.54587,1.45195 -2.31295,3.90575 -3.92753,5.45264 -1.61468,1.54699 -2.93579,3.13102 -2.93579,3.52014 0,0.38902 -2.40871,3.12524 -5.35285,6.08033 -2.94405,2.95519 -7.92388,8.83801 -11.06574,13.07355 -3.14226,4.23513 -6.04906,7.84556 -6.45933,8.02304 -1.59539,0.69033 -10.21629,12.12279 -10.21629,13.54781 0,1.5474 -2.94188,6.2768 -6.1213,9.841 -7.58274,8.50018 -9.92478,11.38272 -9.92478,12.2141 0,0.52729 -5.22945,6.30476 -11.6214,12.83984 -6.39134,6.53528 -12.04147,12.82374 -12.55597,13.97304 -0.5149,1.15003 -2.27105,4.12183 -3.90369,6.6039 -1.63253,2.48208 -3.38434,5.41549 -3.89275,6.51867 -0.50871,1.10318 -4.26536,5.39516 -8.34849,9.53773 -5.86993,5.95527 -8.4621,9.62431 -12.38354,17.52827 -2.72797,5.49773 -6.08807,10.97544 -7.46707,12.1719 -4.28703,3.72022 -6.8887,5.82618 -9.45734,7.656 -1.36187,0.96996 -3.06282,2.83085 -3.78018,4.13514 -4.95166,9.00353 -27.44975,35.72054 -30.08021,35.72054 -1.79257,0 -9.49036,7.27163 -16.85445,15.92164 -2.48207,2.91546 -5.68336,5.91647 -7.11406,6.66881 -3.33667,1.7548 -11.41873,2.55853 -16.03989,1.59476 z M 542.31126,665.40488 c -2.15724,-1.27839 -4.32335,-3.04104 -4.8135,-3.9169 -0.49014,-0.87606 -1.43296,-1.60116 -2.09501,-1.61179 -0.66247,-0.008 -3.00895,-1.59507 -5.21531,-3.52117 -2.20636,-1.92599 -4.9141,-3.78275 -6.01728,-4.12606 -2.09718,-0.65317 -9.78445,-6.30517 -10.36271,-7.62009 -0.18368,-0.41791 -0.98441,-0.75946 -1.77927,-0.75946 -0.79454,0 -3.75056,-1.58599 -6.5685,-3.52437 -2.81795,-1.93848 -6.30466,-3.78368 -7.74815,-4.10057 -8.70109,-1.90969 -23.19151,-8.11209 -25.69072,-10.99557 -0.55205,-0.63666 -3.11234,-2.57226 -5.69048,-4.30147 -5.649,-3.78884 -8.85122,-7.65064 -8.85122,-10.67362 0,-2.47547 3.52953,-7.52155 5.26112,-7.52155 0.60674,0 4.7489,-1.75821 9.20381,-3.90699 4.45482,-2.14888 11.3656,-4.90523 15.357,-6.12542 3.9915,-1.2202 12.07666,-4.69008 17.96764,-7.7109 8.96215,-4.59577 11.95221,-5.62403 18.31651,-6.29857 5.22005,-0.55308 9.73245,-1.816 14.38435,-4.02545 6.43426,-3.0559 7.60441,-3.25908 23.06614,-4.00326 16.35791,-0.78733 19.06968,-1.31276 28.3223,-5.48793 5.82019,-2.62644 12.41254,-4.18199 21.50862,-5.07497 3.55605,-0.34878 9.16223,-1.73046 12.45784,-3.06983 9.30112,-3.77945 14.67606,-3.26486 17.21736,1.64821 2.05622,3.97623 1.84953,6.24811 -1.16261,12.77968 -1.44649,3.13628 -3.01256,7.00654 -3.48031,8.60068 -0.46744,1.59404 -2.55617,5.46306 -4.64097,8.598 -2.9459,4.42964 -5.01976,6.29785 -9.30648,8.38379 -6.13038,2.98305 -13.71136,5.65633 -16.10315,5.67872 -1.45979,0.0103 -10.97451,11.85295 -10.97451,13.65615 0,0.74192 -7.08176,15.77831 -9.16161,19.45385 -3.48661,6.15999 -6.88592,13.19284 -6.89366,14.26197 -0.0206,2.09966 -15.13245,15.14845 -19.45384,16.79109 -4.69432,1.78473 -12.72458,1.09018 -17.05299,-1.47496 z M 672.62519,500.06042 c -2.82899,-2.82899 -3.33193,-7.63474 -1.43018,-13.6642 0.60777,-1.92693 1.47754,-10.27253 1.9327,-18.54621 0.79764,-14.50363 2.66843,-23.07728 5.87922,-26.9463 1.85356,-2.2336 6.12666,-20.83574 6.10241,-26.56729 -0.0413,-9.32351 -1.36373,-12.98327 -6.63403,-18.33458 -2.63995,-2.68009 -5.24895,-4.87293 -5.7977,-4.87293 -3.33595,0 -23.89164,-8.85091 -28.25317,-12.16498 -2.80887,-2.13434 -5.6392,-3.88058 -6.28949,-3.88058 -1.17314,0 -9.19422,-4.87087 -10.17512,-6.17918 -0.2817,-0.37457 -1.86088,-0.98854 -3.51013,-1.36239 -9.11869,-2.0687 -20.51885,-7.22849 -31.07917,-14.06632 -11.07378,-7.17061 -11.60623,-7.40474 -20.34033,-8.95131 -10.76793,-1.9065 -12.7837,-2.86893 -15.9107,-7.59265 -4.90708,-7.41506 -3.36608,-18.75382 3.79503,-27.92307 1.02775,-1.31554 1.8679,-3.14908 1.8679,-4.07457 0,-2.32801 4.47659,-11.39469 6.42384,-13.01123 0.87916,-0.72954 1.5992,-1.86594 1.5992,-2.52417 0,-0.65834 1.46671,-2.58279 3.25939,-4.27661 5.60566,-5.29652 8.95699,-9.6629 11.00557,-14.33822 4.66191,-10.64153 11.36766,-22.63688 15.23874,-27.25618 5.85229,-6.98548 8.09404,-9.94996 9.56941,-12.6543 0.81415,-1.49137 3.18633,-5.45088 5.27247,-8.7987 2.08615,-3.34803 3.79308,-6.76075 3.79308,-7.58398 0,-1.78896 3.71155,-9.77867 5.52899,-11.90217 0.70787,-0.82756 2.72292,-4.21211 4.47731,-7.52155 1.7544,-3.30953 3.7617,-6.46862 4.4607,-7.02026 0.69858,-0.55205 2.08016,-2.58237 3.06921,-4.51291 0.98957,-1.93053 2.13815,-3.7357 2.55337,-4.01142 0.95965,-0.63769 6.98828,-12.47083 6.98828,-13.71744 0,-0.51284 1.52491,-2.41077 3.38868,-4.21728 2.45524,-2.37981 4.59628,-3.42304 7.77229,-3.78719 6.39547,-0.73263 9.68746,-2.24206 12.01042,-5.50392 2.87934,-4.04351 7.32931,-6.15111 11.25033,-5.3285 1.75244,0.36735 6.11954,2.17849 9.7049,4.024 3.58525,1.84551 8.611,3.62416 11.16902,3.9524 4.66036,0.59849 14.65201,5.89356 22.08843,11.70663 2.01969,1.57877 5.40445,3.58896 7.52155,4.4673 2.1171,0.87812 6.33138,3.0852 9.3651,4.9043 3.03361,1.81919 7.28803,3.61166 9.45384,3.98345 6.7852,1.16488 31.12436,13.74138 32.49129,16.78913 0.17851,0.39934 3.56389,3.0721 7.52155,5.93917 3.95775,2.86707 11.65947,9.64824 17.11417,15.0692 5.45491,5.42096 10.15108,9.85617 10.43587,9.85617 0.2848,0 1.91393,1.06428 3.62075,2.36496 1.70673,1.30078 5.35977,3.52591 8.11767,4.94474 2.75799,1.41883 7.20713,4.41643 9.88733,6.66107 2.68009,2.24454 5.26452,4.08107 5.74311,4.08107 1.32441,0 4.93102,8.0574 4.91018,10.96946 -0.0516,7.43765 -4.58772,26.48298 -7.80119,32.76804 -1.85098,3.62023 -3.05569,8.90261 -4.86034,21.31122 -0.26932,1.85428 -1.58878,4.46967 -2.93115,5.81214 -1.34247,1.34247 -2.44069,2.64192 -2.44069,2.88791 0,0.24559 -1.50221,2.41511 -3.33822,4.82041 -1.83602,2.4053 -3.91122,6.42013 -4.61177,8.9217 -1.28633,4.59443 -5.84196,10.96048 -13.10461,18.31249 -3.62034,3.66533 -12.04055,18.38287 -12.04055,21.04542 0,0.61603 -3.94878,5.41993 -8.77517,10.67661 -7.34303,7.99786 -9.3232,10.90435 -12.13279,17.80914 -2.47351,6.07889 -5.05609,10.19132 -9.80943,15.61981 -3.54862,4.0527 -7.11488,7.62288 -7.92491,7.93368 -0.81002,0.3106 -1.473,1.10246 -1.473,1.75925 0,0.65627 -1.80516,3.58484 -4.01152,6.50711 -2.20625,2.92227 -4.01141,5.74631 -4.01141,6.27546 0,0.52935 -0.34465,1.11287 -0.76462,1.29665 -1.12516,0.49221 -7.59832,9.91994 -9.0088,13.12071 -0.66865,1.51686 -1.56329,2.76512 -1.98883,2.77389 -0.42514,0.008 -2.3532,1.42285 -4.28363,3.14237 -1.93064,1.71942 -5.08353,3.79369 -7.00643,4.60939 -1.92311,0.81518 -8.91809,6.79418 -15.5447,13.28519 -15.46534,15.14949 -18.94327,18.07981 -25.23039,21.26098 -8.18071,4.13823 -10.88123,4.41674 -13.86779,1.43049 z M 504.11163,321.21717 c -2.42718,-0.58611 -7.57211,-2.71115 -13.17684,-5.44366 -2.28323,-1.11298 -5.93195,-2.26259 -8.10817,-2.55441 -2.86501,-0.38386 -5.67191,-1.98254 -10.17213,-5.79161 -6.69398,-5.66592 -12.89009,-8.02964 -29.12056,-11.10793 -9.49976,-1.80207 -13.70239,-3.4508 -20.54795,-8.0605 -2.80216,-1.8872 -5.50248,-3.43109 -6.00057,-3.43109 -0.49839,0 -1.40675,-0.64699 -2.01917,-1.4373 -1.91619,-2.47361 -10.78888,-6.58574 -14.21068,-6.58574 -4.45709,0 -14.63809,-3.27228 -18.30558,-5.88345 -1.65265,-1.17675 -3.4669,-2.13949 -4.03195,-2.13949 -0.56547,0 -1.66566,-0.63873 -2.44627,-1.41924 -0.7801,-0.7801 -4.53592,-3.32264 -8.34529,-5.64921 -3.80948,-2.32647 -8.20197,-5.29816 -9.76114,-6.6038 -1.55916,-1.30573 -3.81567,-2.38126 -5.0144,-2.39044 -3.58112,-0.0206 -9.86184,-4.25329 -11.89907,-8.00643 -1.44752,-2.66709 -1.80929,-4.95527 -1.50613,-9.52741 0.51801,-7.82182 2.50994,-12.73345 7.04741,-17.37978 2.02206,-2.07077 3.67647,-4.1145 3.67647,-4.5417 0,-1.14641 5.04277,-7.82285 7.85773,-10.40388 1.34329,-1.23144 4.60124,-3.62447 7.24026,-5.31777 5.48359,-3.51891 6.58584,-5.00316 13.19387,-17.76901 3.05962,-5.91089 4.80328,-10.55629 4.80328,-12.79773 0,-3.50136 3.57307,-12.52192 4.96002,-12.52192 0.40037,0 3.37939,-5.3027 6.62051,-11.78381 3.24112,-6.48111 6.86414,-12.55803 8.05121,-13.50374 1.18718,-0.94623 3.78637,-5.0079 5.77613,-9.02592 4.20201,-8.48532 6.02698,-11.12197 14.20584,-20.524937 3.30943,-3.804732 6.91986,-8.230757 8.02293,-9.83584 1.10318,-1.604979 3.69814,-4.705146 5.76664,-6.889318 2.0684,-2.184171 3.76077,-4.357508 3.76077,-4.829591 0,-0.471567 1.46661,-3.359684 3.25929,-6.416512 1.79268,-3.056829 3.93629,-6.85279 4.76375,-8.435481 1.84386,-3.527261 11.12889,-14.056314 12.39551,-14.056314 0.50562,0 2.81579,-1.692379 5.13431,-3.760774 13.97211,-12.463821 15.70608,-13.288186 27.9662,-13.288186 10.5694,0 14.32915,1.294178 18.42002,6.339638 2.43027,2.997289 8.37965,6.033274 17.31559,8.836055 4.1369,1.29748 8.10219,2.910818 8.81171,3.585252 0.70993,0.674847 2.62756,2.016285 4.26226,2.981914 1.6346,0.965836 2.97211,2.109773 2.97211,2.542336 0,0.433388 0.79145,0.786289 1.75822,0.786289 0.96686,0 4.01327,1.603741 6.76941,3.563892 2.75614,1.960151 6.98621,4.550778 9.40018,5.756938 2.41397,1.20616 5.34739,3.204903 6.51877,4.441709 1.17129,1.236806 2.8292,2.256609 3.68411,2.266102 0.85542,0.0078 1.98326,0.432356 2.50715,0.940039 1.43699,1.392 12.76471,7.100233 14.09047,7.100233 1.51747,0 12.43575,11.91218 12.43575,13.566896 0,0.702707 1.46671,2.153215 3.25928,3.223273 1.79268,1.07005 4.79399,3.258347 6.66963,4.862707 8.63815,7.38926 14.60084,12.89907 17.36069,16.04309 1.65245,1.88193 3.55946,3.42159 4.23781,3.42159 0.67898,0 3.11379,1.73583 5.41199,3.85736 3.91328,3.61281 4.17806,4.20128 4.17311,9.27667 -0.005,5.25926 -0.48292,6.45201 -5.26525,13.14878 -0.9679,1.35578 -3.30035,6.77447 -5.1827,12.04147 -1.88225,5.26721 -3.84322,10.41988 -4.35782,11.4499 -7.39494,14.80752 -7.71853,15.32397 -14.02226,22.38128 -2.34422,2.62458 -4.26216,5.23398 -4.26216,5.79873 0,0.56444 -0.66247,1.57681 -1.47249,2.24877 -1.87368,1.55503 -6.08033,9.0481 -6.88932,12.27127 -0.53967,2.14991 -2.12308,5.18724 -6.94813,13.32822 -0.65421,1.10318 -2.89214,4.74498 -4.97406,8.0929 -2.08181,3.34792 -3.78512,6.42466 -3.78512,6.837 0,0.41275 -2.03073,3.24298 -4.51291,6.29011 -2.48218,3.04713 -4.52158,5.83722 -4.53221,6.20033 -0.008,0.36322 -1.59022,2.46051 -3.51002,4.66088 -1.92001,2.20017 -3.49084,4.53768 -3.49084,5.19416 0,0.6573 -1.80527,3.91142 -4.01152,7.23303 -2.20636,3.32182 -4.01162,6.48255 -4.01162,7.02398 0,0.54173 -2.03073,2.64862 -4.51291,4.68255 -2.48207,2.03393 -4.51291,4.29508 -4.51291,5.02461 0,0.72954 -0.83788,1.9164 -1.8614,2.63706 -2.01009,1.41512 -5.50145,7.7884 -6.48647,11.84098 -0.33536,1.379 -2.4762,4.98324 -4.75778,8.00932 -5.91708,7.84834 -11.2171,9.9866 -24.5023,9.88589 -5.51579,-0.0413 -10.93138,-0.29409 -12.03445,-0.55928 z"
     id="path49055"
     style="stroke-width:1.00288"
     sodipodi:nodetypes="cccssssssscssccssscsssscsssssscsccscsccscsssccsccssssccccssssssccssccccsccscscsssccccccccsccccsscsscssccssssccsccsccscscssssscsscssscscssssscccsccccscccccscsccsccssssccssssssssssscsssscsssscssssssssssssccscsccsscscssscccccssssssscsssscssscssssscsccsscsscsscccscsccscsssssccsssscsscccscssssscsscsssssscssssssccsssscsccsccssssscccscssssscssccssssssccsscssscssscscscccscssccssscscssccscscssscscccssscccccsscccscssssccsssssscscsssscscsscsssssssscsssscscsscscssssscssscscssscssscsssscsscsccscssscccscscsssccsssssscssscccscsscsccccccscsccsssccccccscsscccsscscccsscccscscsscssssssscscsssccsssscsssscccccccccccsccscsssscsccccsccsssscsscssscscsssscsssssccsssccscscccsscscsssccssssscccccc" />
</svg>
